<svg id="edu_login2" data-name="login_partner_02(h36)" xmlns="http://www.w3.org/2000/svg" viewBox="0 0 36 36">
    <path data-name="36x36" style="fill:none" d="M0 0h36v36H0z"/>
    <g data-name="그룹 153030">
        <path data-name="패스 210462" d="M1-.441 13.8-8 25.952-.441V9.952H1z" transform="translate(3 15)" style="fill:#205ea7"/>
        <path data-name="사각형 151715" transform="translate(8 4)" style="fill:#3890f6" d="M0 0h17v24H0z"/>
        <path data-name="패스 210463" d="M-3009.488-2254H-3033v-14.4l12.088 5.581 12.864-5.615v12.932a1.472 1.472 0 0 1-1.44 1.502z" transform="translate(3037.048 2283)" style="fill:#2876d1"/>
        <g data-name="그룹 153176">
            <path data-name="사각형 151734" transform="translate(11 7)" style="fill:#fff" d="M0 0h11.072v1.546H0z"/>
            <path data-name="사각형 151735" transform="translate(11 11.123)" style="fill:#fff" d="M0 0h8v1.546H0z"/>
        </g>
    </g>
    <g transform="translate(-65 -5)">
        <circle data-name="타원 5245" cx="7" cy="7" r="7" transform="translate(84 24)" style="fill:#ff8f1f"/>
        <path data-name="패스 210104" d="m5.816 7.872 2.264 2.205 4.811-4.515" transform="translate(81.685 22.937)" style="stroke:#fff;stroke-width:1.5px;fill:none"/>
    </g>
</svg>
