<svg id="edu_login2" data-name="login_partner_02(h36)" xmlns="http://www.w3.org/2000/svg" viewBox="0 0 36 36">
    <path data-name="36x36" style="fill:none" d="M0 0h36v36H0z"/>
    <g data-name="그룹 153030">
        <path data-name="패스 210462" d="m1 0 13.333-8L27 0v11H1z" transform="translate(2 14.5)" style="fill:#205ea7"/>
        <path data-name="사각형 151715" transform="translate(7 3)" style="fill:#3890f6" d="M0 0h18v25H0z"/>
        <path data-name="패스 210463" d="M-3008.5-2254h-24.5v-14.4l12.6 5.581 13.4-5.615v12.932a1.5 1.5 0 0 1-1.5 1.502z" transform="translate(3036 2283)" style="fill:#2876d1"/>
        <path data-name="사각형 151734" transform="translate(10 6.831)" style="fill:#fff;opacity:.8" d="M0 0h12v1.546H0z"/>
        <path data-name="사각형 151735" transform="translate(10 10.954)" style="fill:#fff;opacity:.8" d="M0 0h8v1.546H0z"/>
    </g>
    <g transform="translate(-65 -5)">
        <circle data-name="타원 5245" cx="7" cy="7" r="7" transform="translate(84 24)" style="fill:#ff8f1f"/>
        <path data-name="패스 210104" d="m5.816 7.872 2.264 2.205 4.811-4.515" transform="translate(81.685 22.937)" style="stroke:#fff;stroke-width:1.5px;fill:none"/>
    </g>
</svg>
