<svg id="bookmark_default" xmlns="http://www.w3.org/2000/svg" width="16" height="16" viewBox="0 0 16 16">
  <g id="keyline_16px" data-name="keyline/16px">
    <g id="bounding-box">
      <path id="shape" d="M0,0H16V16H0Z" fill="none"/>
    </g>
  </g>
  <g id="icon" transform="translate(-1802.045 -373.975)">
    <g id="패스_210110" data-name="패스 210110" transform="translate(1803.045 374.975)" fill="none">
      <path d="M7,0,9.345,4.345l4.655,1L10.794,9.035,11.326,14,7,11.934,2.674,14l.532-4.965L0,5.348l4.655-1Z" stroke="none"/>
      <path d="M 7.000000476837158 3.15842342376709 L 5.646670341491699 5.666160583496094 L 2.797715187072754 6.279552459716797 L 4.766850471496582 8.5447998046875 L 4.451414108276367 11.48874473571777 L 7.000000476837158 10.27159023284912 L 9.548586845397949 11.48874473571777 L 9.233150482177734 8.5447998046875 L 11.20228576660156 6.279547691345215 L 8.353330612182617 5.666170120239258 L 7.000000476837158 3.15842342376709 M 7.000000476837158 9.5367431640625e-07 L 9.345000267028809 4.345300674438477 L 14 5.34752082824707 L 10.79429054260254 9.035289764404297 L 11.32624053955078 14 L 7.000000476837158 11.93387031555176 L 2.673760414123535 14 L 3.205710411071777 9.035289764404297 L 9.5367431640625e-07 5.347530364990234 L 4.655000686645508 4.345300674438477 L 7.000000476837158 9.5367431640625e-07 Z" stroke="none" fill="#222"/>
    </g>
  </g>
</svg>
