<svg id="price2" xmlns="http://www.w3.org/2000/svg" xmlns:xlink="http://www.w3.org/1999/xlink" width="24.001" height="24" viewBox="0 0 24.001 24">
  <defs>
    <clipPath id="clip-path">
      <rect id="사각형_151485" data-name="사각형 151485" width="24" height="24" transform="translate(-3.999 -2)" fill="none"/>
    </clipPath>
  </defs>
  <g id="keyline_24px" data-name="keyline/24px">
    <g id="bounding-box">
      <path id="shape" d="M0,0H24V24H0Z" fill="none"/>
    </g>
  </g>
  <g id="icon" transform="translate(4 2)">
    <g id="line_mask" data-name="line mask" clip-path="url(#clip-path)">
      <g id="line">
        <g id="그룹_147439" data-name="그룹 147439">
          <g id="타원_5193" data-name="타원 5193" transform="translate(8 -4.142) rotate(45)" fill="none" stroke="#222" stroke-width="1.5" stroke-dasharray="28 40">
            <circle cx="10" cy="10" r="10" stroke="none"/>
            <circle cx="10" cy="10" r="9.25" fill="none"/>
          </g>
          <path id="패스_210109" data-name="패스 210109" d="M18274.215-3412.96l-2,2,2,2" transform="translate(-18277.217 -3345.6) rotate(21)" fill="none" stroke="#222" stroke-width="1.5"/>
        </g>
        <g id="그룹_147441" data-name="그룹 147441" transform="translate(16 20) rotate(180)">
          <g id="타원_5193-2" data-name="타원 5193" transform="translate(8 -4.142) rotate(45)" fill="none" stroke="#222" stroke-width="1.5" stroke-dasharray="28 40">
            <circle cx="10" cy="10" r="10" stroke="none"/>
            <circle cx="10" cy="10" r="9.25" fill="none"/>
          </g>
          <path id="패스_210109-2" data-name="패스 210109" d="M18274.215-3412.96l-2,2,2,2" transform="translate(-18277.217 -3345.6) rotate(21)" fill="none" stroke="#222" stroke-width="1.5"/>
        </g>
      </g>
    </g>
    <g id="그룹_147440" data-name="그룹 147440">
      <text id="w" transform="translate(3 14)" fill="#222" stroke="#222" stroke-width="0.3" font-size="12" font-family="SpoqaHanSansNeo-Medium, Spoqa Han Sans Neo" font-weight="500"><tspan x="0" y="0">w</tspan></text>
      <line id="선_3149" data-name="선 3149" x2="11" y2="0.097" transform="translate(2.5 10.5)" fill="none" stroke="#222" stroke-width="1.5"/>
    </g>
  </g>
</svg>
