<svg id="sms" xmlns="http://www.w3.org/2000/svg" width="24" height="24" viewBox="0 0 24 24">
  <g id="keyline_24px" data-name="keyline/24px">
    <g id="bounding-box">
      <path id="shape" d="M0,0H24V24H0Z" fill="none"/>
    </g>
  </g>
  <g id="icon" transform="translate(4 3)">
    <g id="ballon_txt" data-name="ballon txt" transform="translate(1299 348)" fill="none">
      <path d="M-1297-333.5h-4V-348h20v14.5h-10.6l-5.4,4.5Z" stroke="none"/>
      <path d="M -1295.499755859375 -332.2025756835938 L -1292.143676757812 -334.9996948242188 L -1282.500244140625 -334.9996948242188 L -1282.500244140625 -346.4996337890625 L -1299.500244140625 -346.4996337890625 L -1299.500244140625 -334.9996948242188 L -1295.499755859375 -334.9996948242188 L -1295.499755859375 -332.2025756835938 M -1296.999755859375 -328.9996948242188 L -1296.999755859375 -333.4996948242188 L -1301.000244140625 -333.4996948242188 L -1301.000244140625 -347.9996337890625 L -1281.000244140625 -347.9996337890625 L -1281.000244140625 -333.4996948242188 L -1291.6005859375 -333.4996948242188 L -1296.999755859375 -328.9996948242188 Z" stroke="none" fill="#222"/>
    </g>
    <g id="txt">
      <rect id="사각형_151482" data-name="사각형 151482" width="2" height="2" transform="translate(3.001 6.5)" fill="#222"/>
      <rect id="사각형_151483" data-name="사각형 151483" width="2" height="2" transform="translate(7.001 6.5)" fill="#222"/>
      <rect id="사각형_151484" data-name="사각형 151484" width="2" height="2" transform="translate(11.001 6.5)" fill="#222"/>
    </g>
  </g>
</svg>
