<svg xmlns="http://www.w3.org/2000/svg" width="124" height="34" viewBox="0 0 124 34">
    <defs>
        <clipPath id="xnbdv6w4za">
            <path style="fill:none" d="M0 0h124v34H0z"/>
        </clipPath>
    </defs>
    <g style="isolation:isolate;clip-path:url(#xnbdv6w4za)">
        <path data-name="패스 210157" d="M236.734 0a2.516 2.516 0 0 1 2.484 2.546 2.485 2.485 0 1 1-4.968 0A2.516 2.516 0 0 1 236.734 0" transform="translate(-151.359 5.013)" style="fill:#2b63ff"/>
        <path data-name="패스 210158" d="M271.7 21.67a7.028 7.028 0 0 0-1.522-2.478 6.605 6.605 0 0 0-2.371-1.574 8.729 8.729 0 0 0-6.086 0 6.629 6.629 0 0 0-3.892 4.023 9.431 9.431 0 0 0-.531 3.265 9.539 9.539 0 0 0 .531 3.29 6.918 6.918 0 0 0 1.507 2.463 6.518 6.518 0 0 0 2.342 1.56 8.9 8.9 0 0 0 6.147 0 6.456 6.456 0 0 0 2.342-1.574 7.082 7.082 0 0 0 1.532-2.485 10.12 10.12 0 0 0 0-6.49m-6.932 7.092a3.85 3.85 0 1 1 3.747-3.856v.011a3.8 3.8 0 0 1-3.747 3.845" transform="translate(-166.25 -5.865)" style="fill:#2b2b2b"/>
        <path data-name="패스 210159" d="M88.28 25.2a7.517 7.517 0 0 0-3.652-1.73l-1.49-.363a3.026 3.026 0 0 1-1.323-.559 1.126 1.126 0 0 1-.382-.874 1.215 1.215 0 0 1 .669-1.106 3.687 3.687 0 0 1 1.858-.392 6.475 6.475 0 0 1 1.171.109c.4.073.771.163 1.125.265l.276.087h.032a1.319 1.319 0 0 0 .534.112 1.436 1.436 0 0 0 1.369-1.5 1.46 1.46 0 0 0-.626-1.159.3.3 0 0 0-.05-.044 3.816 3.816 0 0 0-.471-.265 6.43 6.43 0 0 0-1.61-.5 11.011 11.011 0 0 0-2.024-.174 6.953 6.953 0 0 0-4.444 1.266 4.026 4.026 0 0 0-1.582 3.29 3.8 3.8 0 0 0 1.063 2.837 6.889 6.889 0 0 0 3.333 1.592l1.737.406q1.826.4 1.826 1.683a1.332 1.332 0 0 1-.637 1.172 3.466 3.466 0 0 1-1.9.41 7.617 7.617 0 0 1-2.573-.439 6.472 6.472 0 0 1-.853-.341.3.3 0 0 0-.074-.022 1.318 1.318 0 0 0-.464-.087 1.434 1.434 0 0 0-1.4 1.464 1.476 1.476 0 0 0 .27.839l.021.036c.021.029.05.054.074.083a.413.413 0 0 0 .039.04 3.4 3.4 0 0 0 1.04.751 6.947 6.947 0 0 0 1.769.544 12.713 12.713 0 0 0 2.268.189 7.419 7.419 0 0 0 4.625-1.233 4.087 4.087 0 0 0 1.582-3.417 4.045 4.045 0 0 0-1.126-2.97" transform="translate(-50.178 -5.89)" style="fill:#2b2b2b"/>
        <path data-name="패스 210160" d="M164.334 18.48a7.794 7.794 0 0 0-4.759-1.31 14.029 14.029 0 0 0-2.282.185 7.381 7.381 0 0 0-1.808.479 1.237 1.237 0 0 0-.354.247 1.425 1.425 0 0 0-.125 1.976 1.351 1.351 0 0 0 1.034.476h.134a.389.389 0 0 0 .092 0h.074l.464-.1a11.085 11.085 0 0 1 2.378-.2 4.206 4.206 0 0 1 2.371.526 1.953 1.953 0 0 1 .839 1.745v.3a.656.656 0 0 1-.648.664H159.3a9.04 9.04 0 0 0-1.2.058 5.427 5.427 0 0 0-3.163 1.32 4.18 4.18 0 0 0-1.292 3.2 4.08 4.08 0 0 0 1.748 3.6 6.807 6.807 0 0 0 4.321 1.215h.117s1.571.029 3.4-.033h.088a2.919 2.919 0 0 0 2.806-2.938v-6.978c-.011-2.206-.605-3.559-1.794-4.433m-1.96 8.927v2.176s-.042.3-.648.3h-2.031a5.668 5.668 0 0 1-.931-.062 3.068 3.068 0 0 1-.98-.308 1.687 1.687 0 0 1-.86-1.534 1.637 1.637 0 0 1 .566-1.364 2.173 2.173 0 0 1 1.231-.5c.371-.044 1.04-.058 1.568-.058h1.414a.656.656 0 0 1 .648.664zm3.737 2.4v.047a.208.208 0 0 0 0-.047" transform="translate(-99.274 -5.928)" style="fill:#2b2b2b"/>
        <path data-name="패스 210161" d="M128.528 23.106h-.177a8.063 8.063 0 0 1-1.171.08 2.778 2.778 0 0 1-1.66-.439 1.67 1.67 0 0 1-.591-1.451v-6.105a.656.656 0 0 1 .648-.664h2.951a1.548 1.548 0 0 0 0-3.087h-2.951a.656.656 0 0 1-.648-.664V8.962A1.929 1.929 0 0 0 123.036 7h-.17a1.927 1.927 0 0 0-1.716 1.933v12.642a4.434 4.434 0 0 0 1.384 3.667 5.879 5.879 0 0 0 3.79 1.106h.035a13.82 13.82 0 0 0 2.477-.185h.046a.118.118 0 0 0 .053-.022 1.539 1.539 0 0 0 1.132-1.839 1.507 1.507 0 0 0-1.539-1.2" transform="translate(-78.279 .552)" style="fill:#2b2b2b"/>
        <path data-name="패스 210162" d="M208.5 23.106h-.177a7.624 7.624 0 0 1-1.171.08 2.777 2.777 0 0 1-1.66-.435 1.67 1.67 0 0 1-.592-1.451v-6.113a.656.656 0 0 1 .648-.664h2.952a1.542 1.542 0 0 0 0-3.083h-2.951a.656.656 0 0 1-.648-.664V8.962A1.925 1.925 0 0 0 203.017 7h-.241a1.932 1.932 0 0 0-1.667 1.933v12.642a4.434 4.434 0 0 0 1.384 3.667 5.879 5.879 0 0 0 3.79 1.106h.035a13.788 13.788 0 0 0 2.477-.185h.06l.053-.022a1.539 1.539 0 0 0 1.132-1.839 1.507 1.507 0 0 0-1.539-1.2" transform="translate(-129.945 .552)" style="fill:#2b2b2b"/>
        <path data-name="패스 210163" d="M237.768 17.14a1.943 1.943 0 0 0-1.918 1.966v11.731a1.919 1.919 0 1 0 3.836 0V19.106a1.943 1.943 0 0 0-1.918-1.966" transform="translate(-152.393 -5.91)" style="fill:#2b2b2b"/>
        <path data-name="패스 210164" d="M323.824 21.012a3.923 3.923 0 0 0-1.5-3.323 5.847 5.847 0 0 0-2.194-1.183 10.327 10.327 0 0 0-3-.337h-.679a10.471 10.471 0 0 0-3.025.337 5.832 5.832 0 0 0-2.176 1.183 3.917 3.917 0 0 0-1.5 3.323v9.221a1.954 1.954 0 0 0 1.973 1.937 1.933 1.933 0 0 0 1.732-1.194c.021-.051.039-.1.057-.156v-.02a2.026 2.026 0 0 0 .067-.33.8.8 0 0 0 0-.091.622.622 0 0 0 0-.08V21.49a1.525 1.525 0 0 1 .86-1.48 4.808 4.808 0 0 1 2.063-.363h.517a4.824 4.824 0 0 1 2.066.363 1.525 1.525 0 0 1 .856 1.48v8.989a1.491 1.491 0 0 0 .067.33v.022c.018.054.032.105.053.156a1.922 1.922 0 0 0 2.436 1.268 1.98 1.98 0 0 0 1.329-2v-9.243z" transform="translate(-200.138 -5.286)" style="fill:#2b2b2b"/>
        <path data-name="패스 210165" d="M9.39 9.144a3.365 3.365 0 0 0-3.205-3.508 3.352 3.352 0 0 0-3.422 3.286v15.269a3.394 3.394 0 0 0 0 .319 3.339 3.339 0 0 0 3.624 3.05 3.358 3.358 0 0 0 2.975-3.05 3.394 3.394 0 0 0 0-.319V9.144z" transform="translate(-1.782 1.423)" style="fill:#2b63ff"/>
        <path data-name="패스 210166" d="M9.11 29.625s6.907.675 11.794-4.059a15.283 15.283 0 0 0 4.66-10.23l-6.635-.116s.05 3.584-2.4 5.594a10.374 10.374 0 0 1-7.229 2.02z" transform="translate(-5.887 -4.686)" style="fill:#f70"/>
        <path data-name="패스 210167" d="M2.77 19.534a17.056 17.056 0 0 1 13.7 3.762 13.947 13.947 0 0 1 4.986 9.685l-6.536.725a10.737 10.737 0 0 0-3.255-5.7 11.842 11.842 0 0 0-8.9-2.576z" transform="translate(-1.789 -7.291)" style="fill:#2b63ff"/>
        <path data-name="패스 210168" d="M40.166 47.42a3.4 3.4 0 1 1-3.316 3.4 3.358 3.358 0 0 1 3.316-3.4" transform="translate(-23.81 -25.205)" style="fill:#7b9fff"/>
        <path data-name="패스 210169" d="M40.166 5.96a3.4 3.4 0 1 1-3.316 3.4 3.358 3.358 0 0 1 3.316-3.4" transform="translate(-23.81 1.215)" style="fill:#ffb459"/>
        <path data-name="패스 210170" d="M3.316 36.2a3.4 3.4 0 0 1 0 6.8 3.4 3.4 0 0 1 0-6.8" transform="translate(0 -18.056)" style="fill:#ffb459"/>
    </g>
</svg>
