<svg xmlns="http://www.w3.org/2000/svg" width="135" height="34" viewBox="0 0 135 34">
    <defs>
        <clipPath id="rg3lqo87la">
            <path style="fill:none" d="M0 0h135v34H0z"/>
        </clipPath>
    </defs>
    <g style="isolation:isolate;clip-path:url(#rg3lqo87la)">
        <path data-name="패스 210157" d="M236.948 0a2.7 2.7 0 1 1-2.7 2.7 2.7 2.7 0 0 1 2.7-2.7" transform="translate(-144.233)" style="fill:#2b63ff"/>
        <path data-name="패스 210158" d="M272.938 21.943a7.417 7.417 0 0 0-1.652-2.625 7.188 7.188 0 0 0-2.575-1.668 9.7 9.7 0 0 0-6.61 0 7.105 7.105 0 0 0-4.227 4.262 9.767 9.767 0 0 0-.576 3.458 9.879 9.879 0 0 0 .576 3.485 7.3 7.3 0 0 0 1.637 2.609 7.094 7.094 0 0 0 2.544 1.652 9.89 9.89 0 0 0 6.675 0 7.023 7.023 0 0 0 2.544-1.668 7.474 7.474 0 0 0 1.664-2.632 10.472 10.472 0 0 0 0-6.875m-7.528 7.513a4.077 4.077 0 1 1 4.069-4.085v.012a4.074 4.074 0 0 1-4.069 4.073" transform="translate(-158.423 -10.51)" style="fill:#2b2b2b"/>
        <path data-name="패스 210159" d="M89.194 25.675a8.247 8.247 0 0 0-3.966-1.833l-1.618-.384a3.33 3.33 0 0 1-1.437-.592 1.179 1.179 0 0 1-.415-.926 1.283 1.283 0 0 1 .726-1.172 4.089 4.089 0 0 1 2.017-.415 7.2 7.2 0 0 1 1.272.115c.43.077.838.173 1.222.281l.3.092h.035a1.463 1.463 0 0 0 .58.119 1.537 1.537 0 0 0 .807-2.813.326.326 0 0 0-.054-.046 4.175 4.175 0 0 0-.511-.281 7.111 7.111 0 0 0-1.748-.526 12.25 12.25 0 0 0-2.2-.184 7.686 7.686 0 0 0-4.826 1.341 4.227 4.227 0 0 0-1.718 3.485 3.966 3.966 0 0 0 1.153 3 7.557 7.557 0 0 0 3.62 1.687l1.887.43q1.983.427 1.983 1.783a1.4 1.4 0 0 1-.692 1.241 3.842 3.842 0 0 1-2.06.434 8.46 8.46 0 0 1-2.794-.465 7.134 7.134 0 0 1-.926-.361.328.328 0 0 0-.081-.023 1.463 1.463 0 0 0-.5-.092 1.537 1.537 0 0 0-1.23 2.44l.023.038c.023.031.054.058.081.088a.442.442 0 0 0 .042.042 3.7 3.7 0 0 0 1.13.8 7.684 7.684 0 0 0 1.921.576 14.145 14.145 0 0 0 2.463.2 8.206 8.206 0 0 0 5.02-1.304 4.288 4.288 0 0 0 1.718-3.62 4.227 4.227 0 0 0-1.226-3.155" transform="translate(-47.816 -10.535)" style="fill:#2b2b2b"/>
        <path data-name="패스 210160" d="M165.253 18.557a8.62 8.62 0 0 0-5.169-1.387 15.609 15.609 0 0 0-2.479.2 8.176 8.176 0 0 0-1.964.507 1.344 1.344 0 0 0-.384.261 1.483 1.483 0 0 0 .988 2.6h.146a.433.433 0 0 0 .1 0h.081l.5-.1a12.333 12.333 0 0 1 2.582-.215 4.662 4.662 0 0 1 2.575.557 2.052 2.052 0 0 1 .911 1.848v.315a.7.7 0 0 1-.7.7h-2.655a10.062 10.062 0 0 0-1.3.061 5.971 5.971 0 0 0-3.435 1.4 4.373 4.373 0 0 0-1.4 3.389 4.288 4.288 0 0 0 1.9 3.816 7.526 7.526 0 0 0 4.692 1.287h.127s1.706.031 3.7-.035h.1a3.128 3.128 0 0 0 3.047-3.113v-7.39c-.012-2.336-.657-3.77-1.948-4.7m-2.129 9.457v2.305s-.046.319-.7.319h-2.206a6.307 6.307 0 0 1-1.011-.065 3.393 3.393 0 0 1-1.064-.327 1.779 1.779 0 0 1-.934-1.625 1.714 1.714 0 0 1 .615-1.445 2.393 2.393 0 0 1 1.337-.53c.4-.046 1.13-.061 1.7-.061h1.524a.7.7 0 0 1 .7.7zm4.058 2.54v.05a.215.215 0 0 0 0-.05" transform="translate(-94.6 -10.572)" style="fill:#2b2b2b"/>
        <path data-name="패스 210161" d="M129.162 24.062h-.192a8.972 8.972 0 0 1-1.272.085 3.075 3.075 0 0 1-1.8-.465 1.748 1.748 0 0 1-.642-1.537v-6.468a.7.7 0 0 1 .7-.7h3.2a1.637 1.637 0 0 0 0-3.27h-3.2a.7.7 0 0 1-.7-.7V9.079A2.068 2.068 0 0 0 123.2 7h-.184a2.06 2.06 0 0 0-1.864 2.048V22.44a4.638 4.638 0 0 0 1.5 3.885 6.5 6.5 0 0 0 4.116 1.172h.038a15.378 15.378 0 0 0 2.69-.2h.05a.13.13 0 0 0 .058-.023 1.629 1.629 0 0 0-.442-3.216" transform="translate(-74.594 -4.31)" style="fill:#2b2b2b"/>
        <path data-name="패스 210162" d="M209.138 24.062h-.192a8.484 8.484 0 0 1-1.272.085 3.073 3.073 0 0 1-1.8-.461 1.748 1.748 0 0 1-.642-1.537v-6.476a.7.7 0 0 1 .7-.7h3.2a1.633 1.633 0 1 0 0-3.266h-3.2a.7.7 0 0 1-.7-.7V9.079A2.063 2.063 0 0 0 203.181 7h-.261a2.064 2.064 0 0 0-1.81 2.048V22.44a4.638 4.638 0 0 0 1.5 3.885 6.5 6.5 0 0 0 4.116 1.172h.038a15.342 15.342 0 0 0 2.69-.2h.065l.058-.023a1.629 1.629 0 0 0-.442-3.216" transform="translate(-123.827 -4.31)" style="fill:#2b2b2b"/>
        <path data-name="패스 210163" d="M237.933 17.14a2.083 2.083 0 0 0-2.083 2.083V31.65a2.083 2.083 0 0 0 4.166 0V19.223a2.083 2.083 0 0 0-2.083-2.083" transform="translate(-145.218 -10.554)" style="fill:#2b2b2b"/>
        <path data-name="패스 210164" d="M325.035 21.3a4.114 4.114 0 0 0-1.625-3.52 6.4 6.4 0 0 0-2.383-1.253 11.484 11.484 0 0 0-3.263-.357h-.738a11.644 11.644 0 0 0-3.286.357 6.383 6.383 0 0 0-2.363 1.253 4.108 4.108 0 0 0-1.629 3.52v9.768a2.1 2.1 0 0 0 4.023.788c.023-.054.042-.108.061-.165v-.023a2.1 2.1 0 0 0 .073-.35.827.827 0 0 0 0-.1.641.641 0 0 0 0-.085v-9.33a1.61 1.61 0 0 1 .934-1.568 5.338 5.338 0 0 1 2.24-.384h.561a5.356 5.356 0 0 1 2.244.384 1.61 1.61 0 0 1 .93 1.568v9.522a1.546 1.546 0 0 0 .073.35v.025c.019.058.035.111.058.165a2.1 2.1 0 0 0 4.089-.78V21.3z" transform="translate(-190.715 -9.951)" style="fill:#2b2b2b"/>
        <path data-name="패스 210165" d="M9.961 9.352a3.6 3.6 0 0 0-7.2-.235v16.175a3.309 3.309 0 0 0 0 .338 3.6 3.6 0 0 0 7.167 0 3.31 3.31 0 0 0 0-.338V9.352z" transform="translate(-1.699 -3.469)" style="fill:#2b63ff"/>
        <path data-name="패스 210166" d="M9.11 30.479s7.5.715 12.808-4.3a16.019 16.019 0 0 0 5.061-10.836l-7.205-.123s.054 3.8-2.605 5.925a11.471 11.471 0 0 1-7.847 2.14z" transform="translate(-5.61 -9.371)" style="fill:#f70"/>
        <path data-name="패스 210167" d="M2.77 19.548a18.856 18.856 0 0 1 14.883 3.985 14.661 14.661 0 0 1 5.414 10.26l-7.1.769a11.287 11.287 0 0 0-3.535-6.033A13.085 13.085 0 0 0 2.77 25.8z" transform="translate(-1.705 -11.889)" style="fill:#2b63ff"/>
        <path data-name="패스 210168" d="M40.451 47.42a3.6 3.6 0 1 1-3.6 3.6 3.6 3.6 0 0 1 3.6-3.6" transform="translate(-22.689 -29.197)" style="fill:#7b9fff"/>
        <path data-name="패스 210169" d="M40.451 5.96a3.6 3.6 0 1 1-3.6 3.6 3.6 3.6 0 0 1 3.6-3.6" transform="translate(-22.689 -3.67)" style="fill:#ffb459"/>
        <path data-name="패스 210170" d="M3.6 36.2A3.6 3.6 0 1 1 0 39.8a3.6 3.6 0 0 1 3.6-3.6" transform="translate(0 -22.29)" style="fill:#ffb459"/>
        <g>
            <path data-name="패스 210150" d="M291.238 81.5h4.3v-1.92h-5.168v.72h4.319v.526h-4.3v1.326a.669.669 0 0 0 .669.665h4.573v-.692h-4.388z" transform="translate(-178.787 -49)" style="fill:#fc0029"/>
            <path data-name="패스 210151" d="m309.482 73.188 2.263-3.289a.467.467 0 0 0 .062-.115.6.6 0 0 0 .05-.25.641.641 0 0 0-.638-.634h-2.809v.769h2.429l-2.087 3.031z" transform="translate(-189.894 -42.424)" style="fill:#fc0029"/>
            <path data-name="패스 210152" d="M320.46 69.6v3.6h.853v-3.431h2.044V69h-2.267a.638.638 0 0 0-.63.6" transform="translate(-197.314 -42.485)" style="fill:#fc0029"/>
            <path data-name="패스 210153" d="M334.233 72.62v-.745l-.834.1v-2.364h.7V68.9h-3.82v.711h.7v2.475h-.769v.714h1.864a19.817 19.817 0 0 0 2.16-.181m-2.463-3.009h.838v2.444c-.208 0-.384.027-.5.027h-.334v-2.47z" transform="translate(-203.317 -42.424)" style="fill:#fc0029"/>
            <path data-name="패스 210154" d="M339.94 70.762h.853v2.064h.807V68.31h-.807v1.718h-.853z" transform="translate(-209.309 -42.061)" style="fill:#fc0029"/>
            <path data-name="패스 210155" d="M334.872 83.008V81.29H334v1.833a.676.676 0 0 0 .672.672h4.681v-.769z" transform="translate(-205.651 -50.053)" style="fill:#fc0029"/>
            <path data-name="패스 210156" d="M313.437 83.79a2.36 2.36 0 0 1-2.217-1.56l-.8.3a3.232 3.232 0 0 0 6.033 0l-.815-.288a2.371 2.371 0 0 1-2.2 1.552" transform="translate(-191.132 -50.632)" style="fill:#fc0029"/>
            <path data-name="패스 210147" d="M296.376 68.9h-.722v1.23h-.726V68.9h-.738v3.359h2.2zm-.738 2.69h-.726v-.769h.742v.769z" transform="translate(-181.139 -42.424)" style="fill:#fc0029"/>
            <path data-name="사각형 151662" transform="translate(132.764 26.207)" style="fill:#fc0029" d="M0 0h.807v4.742H0z"/>
            <path data-name="패스 210148" d="M289.472 68.9h-.738v1.23h-.726V68.9h-.738v3.359h2.2zm-.738 2.69h-.726v-.769h.734v.769z" transform="translate(-176.878 -42.424)" style="fill:#fc0029"/>
            <path data-name="패스 210149" d="M302.506 68.31h-.826v3.954h.826v-1.756h1.049v-.761h-1.049z" transform="translate(-185.751 -42.061)" style="fill:#fc0029"/>
        </g>
    </g>
</svg>
