<svg xmlns="http://www.w3.org/2000/svg" width="135" height="34" viewBox="0 0 135 34">
    <defs>
        <clipPath id="z9ogb9k1ka">
            <path style="fill:none" d="M0 0h135v34H0z"/>
        </clipPath>
    </defs>
    <g style="isolation:isolate;clip-path:url(#z9ogb9k1ka)">
        <path data-name="패스 210157" d="M236.948 0a2.7 2.7 0 1 1-2.7 2.7 2.7 2.7 0 0 1 2.7-2.7" transform="translate(-144.232)" style="fill:#2b63ff"/>
        <path data-name="패스 210158" d="M272.938 21.943a7.417 7.417 0 0 0-1.652-2.625 7.19 7.19 0 0 0-2.575-1.668 9.7 9.7 0 0 0-6.61 0 7.105 7.105 0 0 0-4.227 4.262 9.767 9.767 0 0 0-.576 3.458 9.878 9.878 0 0 0 .576 3.485 7.3 7.3 0 0 0 1.637 2.609 7.093 7.093 0 0 0 2.544 1.652 9.89 9.89 0 0 0 6.675 0 7.023 7.023 0 0 0 2.544-1.668 7.474 7.474 0 0 0 1.664-2.632 10.472 10.472 0 0 0 0-6.875m-7.528 7.513a4.077 4.077 0 1 1 4.069-4.085v.012a4.074 4.074 0 0 1-4.069 4.073" transform="translate(-158.422 -10.51)" style="fill:#2b2b2b"/>
        <path data-name="패스 210159" d="M89.194 25.675a8.247 8.247 0 0 0-3.966-1.833l-1.618-.384a3.33 3.33 0 0 1-1.437-.592 1.179 1.179 0 0 1-.415-.926 1.283 1.283 0 0 1 .726-1.172 4.089 4.089 0 0 1 2.017-.415 7.2 7.2 0 0 1 1.272.115c.43.077.838.173 1.222.281l.3.092h.035a1.463 1.463 0 0 0 .58.119 1.537 1.537 0 0 0 .807-2.813.324.324 0 0 0-.054-.046 4.174 4.174 0 0 0-.511-.281 7.112 7.112 0 0 0-1.748-.526 12.251 12.251 0 0 0-2.2-.184 7.687 7.687 0 0 0-4.827 1.341 4.227 4.227 0 0 0-1.718 3.485 3.966 3.966 0 0 0 1.153 3.005 7.557 7.557 0 0 0 3.62 1.687l1.887.43q1.983.427 1.983 1.783a1.4 1.4 0 0 1-.692 1.241 3.842 3.842 0 0 1-2.06.434 8.46 8.46 0 0 1-2.794-.465 7.134 7.134 0 0 1-.926-.361.328.328 0 0 0-.081-.023 1.463 1.463 0 0 0-.5-.092 1.537 1.537 0 0 0-1.23 2.44l.023.038c.023.031.054.058.081.088a.439.439 0 0 0 .042.042 3.7 3.7 0 0 0 1.13.8 7.684 7.684 0 0 0 1.921.576 14.145 14.145 0 0 0 2.463.2A8.206 8.206 0 0 0 88.7 32.45a4.288 4.288 0 0 0 1.718-3.62 4.227 4.227 0 0 0-1.226-3.155" transform="translate(-47.815 -10.535)" style="fill:#2b2b2b"/>
        <path data-name="패스 210160" d="M165.253 18.557a8.62 8.62 0 0 0-5.169-1.387 15.611 15.611 0 0 0-2.479.2 8.176 8.176 0 0 0-1.964.507 1.344 1.344 0 0 0-.384.261 1.483 1.483 0 0 0 .988 2.6h.146a.434.434 0 0 0 .1 0h.081l.5-.1a12.332 12.332 0 0 1 2.582-.215 4.663 4.663 0 0 1 2.575.557 2.052 2.052 0 0 1 .911 1.848v.315a.7.7 0 0 1-.7.7h-2.655a10.061 10.061 0 0 0-1.3.061 5.971 5.971 0 0 0-3.436 1.4 4.373 4.373 0 0 0-1.4 3.389 4.287 4.287 0 0 0 1.9 3.816 7.526 7.526 0 0 0 4.692 1.287h.127s1.706.031 3.7-.035h.1a3.128 3.128 0 0 0 3.047-3.113v-7.39c-.012-2.336-.657-3.77-1.948-4.7m-2.129 9.457v2.305s-.046.319-.7.319h-2.206a6.306 6.306 0 0 1-1.011-.065 3.392 3.392 0 0 1-1.064-.327 1.779 1.779 0 0 1-.934-1.625 1.714 1.714 0 0 1 .615-1.445 2.393 2.393 0 0 1 1.337-.53c.4-.046 1.13-.061 1.7-.061h1.525a.7.7 0 0 1 .7.7zm4.058 2.54v.05a.215.215 0 0 0 0-.05" transform="translate(-94.6 -10.572)" style="fill:#2b2b2b"/>
        <path data-name="패스 210161" d="M129.162 24.062h-.192a8.972 8.972 0 0 1-1.272.085 3.075 3.075 0 0 1-1.8-.465 1.748 1.748 0 0 1-.642-1.537v-6.468a.7.7 0 0 1 .7-.7h3.2a1.637 1.637 0 0 0 0-3.27h-3.2a.7.7 0 0 1-.7-.7V9.079A2.068 2.068 0 0 0 123.2 7h-.184a2.06 2.06 0 0 0-1.864 2.048V22.44a4.638 4.638 0 0 0 1.5 3.885 6.5 6.5 0 0 0 4.116 1.172h.038a15.378 15.378 0 0 0 2.69-.2h.05a.131.131 0 0 0 .058-.023 1.629 1.629 0 0 0-.442-3.216" transform="translate(-74.594 -4.31)" style="fill:#2b2b2b"/>
        <path data-name="패스 210162" d="M209.138 24.062h-.192a8.484 8.484 0 0 1-1.272.085 3.073 3.073 0 0 1-1.8-.461 1.748 1.748 0 0 1-.642-1.537v-6.476a.7.7 0 0 1 .7-.7h3.2a1.633 1.633 0 1 0 0-3.266h-3.2a.7.7 0 0 1-.7-.7V9.079A2.063 2.063 0 0 0 203.181 7h-.261a2.064 2.064 0 0 0-1.81 2.048V22.44a4.638 4.638 0 0 0 1.5 3.885 6.5 6.5 0 0 0 4.116 1.172h.038a15.341 15.341 0 0 0 2.69-.2h.065l.058-.023a1.629 1.629 0 0 0-.442-3.216" transform="translate(-123.826 -4.31)" style="fill:#2b2b2b"/>
        <path data-name="패스 210163" d="M237.933 17.14a2.083 2.083 0 0 0-2.083 2.083V31.65a2.083 2.083 0 0 0 4.166 0V19.223a2.083 2.083 0 0 0-2.083-2.083" transform="translate(-145.217 -10.554)" style="fill:#2b2b2b"/>
        <path data-name="패스 210164" d="M325.035 21.3a4.115 4.115 0 0 0-1.625-3.52 6.4 6.4 0 0 0-2.383-1.253 11.483 11.483 0 0 0-3.262-.357h-.738a11.644 11.644 0 0 0-3.286.357 6.384 6.384 0 0 0-2.363 1.253 4.107 4.107 0 0 0-1.629 3.52v9.768a2.1 2.1 0 0 0 4.023.788c.023-.054.042-.108.061-.165v-.023a2.092 2.092 0 0 0 .073-.35.788.788 0 0 0 0-.1.611.611 0 0 0 0-.085v-9.33a1.61 1.61 0 0 1 .934-1.568 5.338 5.338 0 0 1 2.24-.384h.561a5.356 5.356 0 0 1 2.244.384 1.61 1.61 0 0 1 .93 1.568v9.522a1.542 1.542 0 0 0 .073.35v.025c.019.058.035.111.058.165a2.1 2.1 0 0 0 4.089-.78V21.3z" transform="translate(-190.714 -9.951)" style="fill:#2b2b2b"/>
        <path data-name="패스 210165" d="M9.961 9.352a3.6 3.6 0 0 0-7.2-.235v16.175a3.309 3.309 0 0 0 0 .338 3.6 3.6 0 0 0 7.167 0 3.311 3.311 0 0 0 0-.338V9.352z" transform="translate(-1.699 -3.469)" style="fill:#2b63ff"/>
        <path data-name="패스 210166" d="M9.11 30.479s7.5.715 12.808-4.3a16.019 16.019 0 0 0 5.061-10.837l-7.205-.123s.054 3.8-2.605 5.925a11.471 11.471 0 0 1-7.847 2.14z" transform="translate(-5.61 -9.371)" style="fill:#f70"/>
        <path data-name="패스 210167" d="M2.77 19.548a18.856 18.856 0 0 1 14.883 3.985 14.661 14.661 0 0 1 5.414 10.26l-7.1.769a11.287 11.287 0 0 0-3.535-6.033A13.086 13.086 0 0 0 2.77 25.8z" transform="translate(-1.705 -11.889)" style="fill:#2b63ff"/>
        <path data-name="패스 210168" d="M40.451 47.42a3.6 3.6 0 1 1-3.6 3.6 3.6 3.6 0 0 1 3.6-3.6" transform="translate(-22.689 -29.197)" style="fill:#7b9fff"/>
        <path data-name="패스 210169" d="M40.451 5.96a3.6 3.6 0 1 1-3.6 3.6 3.6 3.6 0 0 1 3.6-3.6" transform="translate(-22.689 -3.67)" style="fill:#ffb459"/>
        <path data-name="패스 210170" d="M3.6 36.2A3.6 3.6 0 1 1 0 39.8a3.6 3.6 0 0 1 3.6-3.6" transform="translate(0 -22.289)" style="fill:#ffb459"/>
        <g>
            <path data-name="패스 210171" d="m280.986 75.085-1.127-3.86-1.123 3.86a.548.548 0 0 1-.521.386h-.772a.545.545 0 0 1-.521-.386l-1.6-4.975h.93a.548.548 0 0 1 .517.386l1.108 3.558L278.9 70.5a.548.548 0 0 1 .521-.386h.891a.54.54 0 0 1 .521.386l1.034 3.551 1.108-3.558a.548.548 0 0 1 .517-.386h.93l-1.613 4.975a.548.548 0 0 1-.521.386h-.772a.544.544 0 0 1-.533-.386" transform="translate(-169.06 -43.051)" style="fill:#004f7c"/>
            <path data-name="패스 210172" d="M320.023 73.615a2.11 2.11 0 0 1-1.359-.386 1.987 1.987 0 0 1-.679-1.694V67.56a.545.545 0 0 1 .528-.56h.7v4.438a1.309 1.309 0 0 0 .251.892.794.794 0 0 0 .386.2.544.544 0 0 1 .409.533v.521h-.243" transform="translate(-195.253 -41.142)" style="fill:#004f7c"/>
            <path data-name="패스 210173" d="M336.2 75.445a7.721 7.721 0 0 1-2.582-.44l.158-.479a.544.544 0 0 1 .679-.351 5.829 5.829 0 0 0 1.772.266c.845 0 1.744-.054 1.744-.695 0-.563-.772-.591-1.544-.618h-.324c-1.247-.069-2.358-.232-2.358-1.49 0-1.37 1.443-1.66 2.655-1.66a9.209 9.209 0 0 1 2.347.309l-.131.448a.548.548 0 0 1-.629.386 7.922 7.922 0 0 0-1.544-.174c-1.077 0-1.509.181-1.509.629s.7.479 1.374.513c1.3.066 2.791.143 2.791 1.544 0 1.517-1.158 1.826-2.922 1.826" transform="translate(-204.86 -42.971)" style="fill:#004f7c"/>
            <path data-name="패스 210174" d="M305.668 72.314a2.357 2.357 0 0 0-.614-1.544 2.89 2.89 0 0 0-2.219-.83c-1.93 0-3.115 1.1-3.115 2.848s1.112 2.64 3.142 2.64a9.342 9.342 0 0 0 1.47-.124 12.63 12.63 0 0 0 1.239-.3l-.127-.448a.552.552 0 0 0-.645-.386 8.41 8.41 0 0 1-1.8.239c-.942 0-1.833-.289-1.93-1.254h4.547a4.855 4.855 0 0 0 .05-.83m-2.824-1.425a1.426 1.426 0 0 1 1.621 1.332h-3.381a1.6 1.6 0 0 1 1.76-1.332" transform="translate(-184.043 -42.944)" style="fill:#004f7c"/>
            <path data-name="패스 210175" d="M327.733 73.615a2.108 2.108 0 0 1-1.355-.386 1.987 1.987 0 0 1-.691-1.687V67.56a.545.545 0 0 1 .528-.56h.7v4.438a1.309 1.309 0 0 0 .251.892.794.794 0 0 0 .386.2.544.544 0 0 1 .409.533v.521h-.247" transform="translate(-199.983 -41.142)" style="fill:#004f7c"/>
        </g>
    </g>
</svg>
