<svg xmlns="http://www.w3.org/2000/svg" width="120" height="24" viewBox="0 0 120 24">
    <defs>
        <clipPath id="dlaojr9wma">
            <path style="fill:none" d="M3 1h64v20H3z"/>
        </clipPath>
        <clipPath id="0p9hz5tt9b">
            <path style="fill:none" d="M1 1h51v24H1z"/>
        </clipPath>
    </defs>
    <g transform="translate(53 1.856)" style="clip-path:url(#dlaojr9wma);isolation:isolate">
        <path data-name="패스 189" d="M125.633 30.9h-1.811v3.065h-1.811V30.9H120.2v8.289h5.433zm-1.811 6.617h-1.811v-1.95h1.811z" transform="translate(-110.652 -29.204)" style="fill:#e60033"/>
        <path data-name="사각형 17" transform="translate(58.377 1)" style="fill:#e60033" d="M0 0h2.02v11.772H0z"/>
        <path data-name="패스 190" d="M116.3 30.9h-1.881v3.065h-1.811V30.9H110.8v8.289h5.433V30.9zm-1.881 6.617h-1.811v-1.95h1.811z" transform="translate(-107.8 -29.204)" style="fill:#e60033"/>
        <path data-name="패스 191" d="M132.52 30.1h-2.02v9.752h2.02v-4.319h2.58v-1.88h-2.58z" transform="translate(-113.777 -28.96)" style="fill:#e60033"/>
        <path data-name="패스 192" d="M117.159 50.237h10.658V45.5H115v1.741h10.658v1.323H115v3.274a1.7 1.7 0 0 0 1.672 1.672h11.284v-1.741H117.09v-1.532z" transform="translate(-109.074 -33.351)" style="fill:#e60033"/>
        <path data-name="패스 193" d="m142.347 41.458 5.642-8.15a.528.528 0 0 0 .139-.279 2.034 2.034 0 0 0 .139-.627 1.576 1.576 0 0 0-1.6-1.6H139.7v1.95h6.06l-5.154 7.448z" transform="translate(-116.569 -29.173)" style="fill:#e60033"/>
        <path data-name="패스 194" d="M156.1 32.432v8.986h2.09V32.85h5.085V30.9h-5.642a1.546 1.546 0 0 0-1.533 1.532z" transform="translate(-121.545 -29.204)" style="fill:#e60033"/>
        <path data-name="패스 195" d="M179.461 40.095v-1.881s-.975.139-2.09.279v-5.852h1.741V30.9h-9.473v1.741h1.741v6.13h-1.88v1.741h4.6a48.552 48.552 0 0 0 5.361-.417zm-6.13-7.453h2.09V38.7a8.935 8.935 0 0 1-1.254.07h-.836z" transform="translate(-125.611 -29.204)" style="fill:#e60033"/>
        <path data-name="패스 196" d="M182.7 36.16h2.159v5.085h1.95V30.1h-1.95v4.249H182.7z" transform="translate(-129.616 -28.96)" style="fill:#e60033"/>
        <path data-name="패스 197" d="M176.729 52.049V47.8H174.5v4.528A1.7 1.7 0 0 0 176.172 54h11.563v-1.95h-11.006z" transform="translate(-127.128 -34.048)" style="fill:#e60033"/>
        <path data-name="패스 198" d="M149.823 52.931a5.862 5.862 0 0 1-5.5-3.831l-2.02.766a7.966 7.966 0 0 0 14.907 0l-2.02-.766a5.546 5.546 0 0 1-5.367 3.831z" transform="translate(-117.358 -34.443)" style="fill:#e60033"/>
    </g>
    <g transform="translate(-1 -1)" style="clip-path:url(#0p9hz5tt9b);isolation:isolate">
        <circle data-name="타원 19" cx="3.692" cy="3.692" transform="translate(18.623 16.816)" style="fill:#ff001f" r="3.692"/>
        <circle data-name="타원 20" cx="3.692" cy="3.692" transform="translate(44.048 1.557)" style="fill:#00bedd" r="3.692"/>
        <circle data-name="타원 21" cx="3.692" cy="3.692" transform="translate(1 1)" style="fill:#ff8f1f" r="3.692"/>
        <path data-name="패스 176" d="M45.225 29.7h-4.389l-7.105 9.755v-3.393a4.934 4.934 0 0 1-2.02.424 5.166 5.166 0 0 1-1.811-.353v13.006h3.831v-3.888l2.926-3.958 4.179 7.846h4.388L39.164 37.9z" transform="translate(-27.02 -25.983)" style="fill:#333"/>
        <path data-name="패스 177" d="M68.507 41.079a4.783 4.783 0 0 0-1.254-1.838 6.963 6.963 0 0 0-1.811-1.272 5.957 5.957 0 0 0-2.229-.424h-3.831a2.924 2.924 0 0 1-.766-.141 1.643 1.643 0 0 1-.627-.424 2.469 2.469 0 0 1-.418-.636 2.574 2.574 0 0 1-.139-.777 3.046 3.046 0 0 1 .139-.777 1.671 1.671 0 0 1 .418-.636 2.429 2.429 0 0 1 .627-.424 2.472 2.472 0 0 1 .766-.141h8.777V29.7h-8.777a4.893 4.893 0 0 0-2.229.495 4.712 4.712 0 0 0-1.811 1.272 7.069 7.069 0 0 0-1.254 1.833 6.266 6.266 0 0 0-.488 2.262 5.088 5.088 0 0 0 .488 2.262 4.783 4.783 0 0 0 1.254 1.838 6.963 6.963 0 0 0 1.811 1.272 6.024 6.024 0 0 0 2.229.495h3.831a2.923 2.923 0 0 1 .766.141 1.643 1.643 0 0 1 .627.424 2.468 2.468 0 0 1 .418.636 2.573 2.573 0 0 1 .139.777 3.044 3.044 0 0 1-.139.777 1.273 1.273 0 0 1-.418.636 1.416 1.416 0 0 1-.627.424 2.472 2.472 0 0 1-.766.141H61.82a3.968 3.968 0 0 1 .139 1.272 5.627 5.627 0 0 1-.7 2.615h1.881a4.894 4.894 0 0 0 2.229-.495 4.712 4.712 0 0 0 1.811-1.272 7.069 7.069 0 0 0 1.254-1.838 6.2 6.2 0 0 0 .418-2.262 3.7 3.7 0 0 0-.345-2.326z" transform="translate(-34.21 -25.983)" style="fill:#333"/>
        <path data-name="패스 178" d="M89.353 39.142a6.963 6.963 0 0 0-1.811-1.272 5.957 5.957 0 0 0-2.229-.424h-3.832a2.924 2.924 0 0 1-.766-.141 1.643 1.643 0 0 1-.627-.424 1.438 1.438 0 0 1-.418-.636 2.573 2.573 0 0 1-.139-.777 3.045 3.045 0 0 1 .139-.777 1.67 1.67 0 0 1 .418-.636 2.429 2.429 0 0 1 .627-.424 2.472 2.472 0 0 1 .766-.141h2.369a5.532 5.532 0 0 1-.557-2.4 5.09 5.09 0 0 1 .207-1.49h-2.02a4.893 4.893 0 0 0-2.229.495 4.711 4.711 0 0 0-1.811 1.272 7.069 7.069 0 0 0-1.252 1.833 6.265 6.265 0 0 0-.488 2.262 5.088 5.088 0 0 0 .488 2.262 4.783 4.783 0 0 0 1.254 1.838 6.962 6.962 0 0 0 1.811 1.272 6.024 6.024 0 0 0 2.229.495h3.831a2.923 2.923 0 0 1 .766.141 1.643 1.643 0 0 1 .627.424 2.469 2.469 0 0 1 .418.636 2.574 2.574 0 0 1 .139.777 3.045 3.045 0 0 1-.139.777 1.671 1.671 0 0 1-.418.636 1.416 1.416 0 0 1-.627.424 2.472 2.472 0 0 1-.766.141h-8.5v3.887h8.5a4.894 4.894 0 0 0 2.229-.495 4.712 4.712 0 0 0 1.811-1.272 7.069 7.069 0 0 0 1.254-1.838 6.328 6.328 0 0 0 0-4.523 8.991 8.991 0 0 0-1.254-1.902z" transform="translate(-40.917 -25.953)" style="fill:#333"/>
    </g>
</svg>
