<svg xmlns="http://www.w3.org/2000/svg" width="120" height="24" viewBox="0 0 120 24">
    <defs>
        <clipPath id="qo7oujgvqa">
            <path style="fill:none" d="M3 1h66v20H3z"/>
        </clipPath>
        <clipPath id="uei9pxnqub">
            <path style="fill:none" d="M1 1h51v24H1z"/>
        </clipPath>
    </defs>
    <g transform="translate(51 1.856)" style="clip-path:url(#qo7oujgvqa);isolation:isolate">
        <path data-name="패스 210116" d="M90.994 23.557 88.423 14.8l-2.571 8.755a1.191 1.191 0 0 1-1.181.9h-1.807a1.211 1.211 0 0 1-1.181-.834L78 12.3h2.085a1.191 1.191 0 0 1 1.181.9l2.5 8.13 2.363-8.06a1.191 1.191 0 0 1 1.181-.9h2.015a1.191 1.191 0 0 1 1.181.9l2.363 8.06 2.5-8.13a1.272 1.272 0 0 1 1.181-.9h2.085l-3.68 11.326a1.211 1.211 0 0 1-1.181.834h-1.807a1.391 1.391 0 0 1-.973-.9" transform="translate(-74.801 -5.609)" style="fill:#006591"/>
        <path data-name="패스 210117" d="M136.725 23.409a5.222 5.222 0 0 1-3.127-.9 4.588 4.588 0 0 1-1.6-3.822V9.651a1.246 1.246 0 0 1 1.253-1.251h1.6v10.145a3.17 3.17 0 0 0 .556 2.015 1.453 1.453 0 0 0 .9.486 1.216 1.216 0 0 1 .9 1.251v1.181c-.069-.069-.278-.069-.486-.069" transform="translate(-91.278 -4.419)" style="fill:#006591"/>
        <path data-name="패스 210118" d="M157.806 24.538A18.406 18.406 0 0 1 151.9 23.5l.347-1.112a1.219 1.219 0 0 1 1.529-.764 13.534 13.534 0 0 0 4.03.625c1.946 0 3.961-.139 3.961-1.6 0-1.32-1.807-1.32-3.474-1.39h-.764c-2.849-.139-5.35-.556-5.35-3.4 0-3.127 3.266-3.752 6.045-3.752a20.963 20.963 0 0 1 5.35.695l-.278 1.042a1.169 1.169 0 0 1-1.39.834 16.258 16.258 0 0 0-3.474-.417c-2.432 0-3.4.417-3.4 1.39 0 1.042 1.6 1.112 3.127 1.181 2.988.139 6.323.347 6.323 3.544-.069 3.4-2.71 4.169-6.671 4.169" transform="translate(-97.35 -5.548)" style="fill:#006591"/>
        <path data-name="패스 210119" d="M122.55 17.42a5.435 5.435 0 0 0-1.39-3.544c-1.042-1.251-2.849-1.876-5.072-1.876-4.378 0-7.088 2.5-7.088 6.462 0 3.891 2.571 6.045 7.157 6.045a18.013 18.013 0 0 0 3.335-.278 55.482 55.482 0 0 0 2.849-.695l-.278-1.042a1.186 1.186 0 0 0-1.459-.834 21.671 21.671 0 0 1-4.1.556c-2.154 0-4.169-.625-4.378-2.849h10.354a18.865 18.865 0 0 0 .069-1.946m-6.462-3.266c2.085 0 3.335.834 3.683 3.057h-7.713c.347-2.015 1.946-3.057 4.03-3.057" transform="translate(-84.26 -5.518)" style="fill:#006591"/>
        <path data-name="패스 210120" d="M146.425 23.409a5.222 5.222 0 0 1-3.127-.9 4.588 4.588 0 0 1-1.6-3.822V9.651a1.246 1.246 0 0 1 1.253-1.251h1.6v10.145a3.17 3.17 0 0 0 .556 2.015 1.453 1.453 0 0 0 .9.486 1.216 1.216 0 0 1 .9 1.251v1.181c-.069-.069-.278-.069-.486-.069" transform="translate(-94.238 -4.419)" style="fill:#006591"/>
    </g>
    <g transform="translate(-1 -1)" style="clip-path:url(#uei9pxnqub);isolation:isolate">
        <circle data-name="타원 19" cx="3.692" cy="3.692" transform="translate(18.623 16.816)" style="fill:#ff001f" r="3.692"/>
        <circle data-name="타원 20" cx="3.692" cy="3.692" transform="translate(44.048 1.557)" style="fill:#00bedd" r="3.692"/>
        <circle data-name="타원 21" cx="3.692" cy="3.692" transform="translate(1 1)" style="fill:#ff8f1f" r="3.692"/>
        <path data-name="패스 176" d="M45.225 29.7h-4.389l-7.105 9.755v-3.393a4.934 4.934 0 0 1-2.02.424 5.166 5.166 0 0 1-1.811-.353v13.006h3.831v-3.888l2.926-3.958 4.179 7.846h4.388L39.164 37.9z" transform="translate(-27.02 -25.983)" style="fill:#333"/>
        <path data-name="패스 177" d="M68.507 41.079a4.783 4.783 0 0 0-1.254-1.838 6.963 6.963 0 0 0-1.811-1.272 5.957 5.957 0 0 0-2.229-.424h-3.831a2.924 2.924 0 0 1-.766-.141 1.643 1.643 0 0 1-.627-.424 2.469 2.469 0 0 1-.418-.636 2.574 2.574 0 0 1-.139-.777 3.046 3.046 0 0 1 .139-.777 1.671 1.671 0 0 1 .418-.636 2.429 2.429 0 0 1 .627-.424 2.472 2.472 0 0 1 .766-.141h8.777V29.7h-8.777a4.893 4.893 0 0 0-2.229.495 4.712 4.712 0 0 0-1.811 1.272 7.069 7.069 0 0 0-1.254 1.833 6.266 6.266 0 0 0-.488 2.262 5.088 5.088 0 0 0 .488 2.262 4.783 4.783 0 0 0 1.254 1.838 6.963 6.963 0 0 0 1.811 1.272 6.024 6.024 0 0 0 2.229.495h3.831a2.923 2.923 0 0 1 .766.141 1.643 1.643 0 0 1 .627.424 2.468 2.468 0 0 1 .418.636 2.573 2.573 0 0 1 .139.777 3.044 3.044 0 0 1-.139.777 1.273 1.273 0 0 1-.418.636 1.416 1.416 0 0 1-.627.424 2.472 2.472 0 0 1-.766.141H61.82a3.968 3.968 0 0 1 .139 1.272 5.627 5.627 0 0 1-.7 2.615h1.881a4.894 4.894 0 0 0 2.229-.495 4.712 4.712 0 0 0 1.811-1.272 7.069 7.069 0 0 0 1.254-1.838 6.2 6.2 0 0 0 .418-2.262 3.7 3.7 0 0 0-.345-2.326z" transform="translate(-34.21 -25.983)" style="fill:#333"/>
        <path data-name="패스 178" d="M89.353 39.142a6.963 6.963 0 0 0-1.811-1.272 5.957 5.957 0 0 0-2.229-.424h-3.832a2.924 2.924 0 0 1-.766-.141 1.643 1.643 0 0 1-.627-.424 1.438 1.438 0 0 1-.418-.636 2.573 2.573 0 0 1-.139-.777 3.045 3.045 0 0 1 .139-.777 1.67 1.67 0 0 1 .418-.636 2.429 2.429 0 0 1 .627-.424 2.472 2.472 0 0 1 .766-.141h2.369a5.532 5.532 0 0 1-.557-2.4 5.09 5.09 0 0 1 .207-1.49h-2.02a4.893 4.893 0 0 0-2.229.495 4.711 4.711 0 0 0-1.811 1.272 7.069 7.069 0 0 0-1.252 1.833 6.265 6.265 0 0 0-.488 2.262 5.088 5.088 0 0 0 .488 2.262 4.783 4.783 0 0 0 1.254 1.838 6.962 6.962 0 0 0 1.811 1.272 6.024 6.024 0 0 0 2.229.495h3.831a2.923 2.923 0 0 1 .766.141 1.643 1.643 0 0 1 .627.424 2.469 2.469 0 0 1 .418.636 2.574 2.574 0 0 1 .139.777 3.045 3.045 0 0 1-.139.777 1.671 1.671 0 0 1-.418.636 1.416 1.416 0 0 1-.627.424 2.472 2.472 0 0 1-.766.141h-8.5v3.887h8.5a4.894 4.894 0 0 0 2.229-.495 4.712 4.712 0 0 0 1.811-1.272 7.069 7.069 0 0 0 1.254-1.838 6.328 6.328 0 0 0 0-4.523 8.991 8.991 0 0 0-1.254-1.902z" transform="translate(-40.917 -25.953)" style="fill:#333"/>
    </g>
</svg>
