<svg id="wells_login4" data-name="login_partner_04(h36)" xmlns="http://www.w3.org/2000/svg" viewBox="0 0 36 36">
    <defs>
        <clipPath id="7skl9fmfza">
            <path data-name="사각형 151737" transform="translate(59.489 4.087)" style="fill:#fff" d="M0 0h14v7H0z"/>
        </clipPath>
    </defs>
    <path data-name="36x36" style="fill:none" d="M0 0h36v36H0z"/>
    <path data-name="패스 210451" d="M-4025-2238a12.912 12.912 0 0 1-9.191-3.806A12.914 12.914 0 0 1-4038-2251a12.911 12.911 0 0 1 3.808-9.193A12.909 12.909 0 0 1-4025-2264v13h13a12.915 12.915 0 0 1-3.807 9.194A12.917 12.917 0 0 1-4025-2238z" transform="translate(4043 2270)" style="fill:#3890f6"/>
    <g data-name="그룹 153029">
        <path data-name="패스 210447" d="M537.847 312.505a3.2 3.2 0 1 0 3.2-3.2 3.2 3.2 0 0 0-3.2 3.2z" transform="translate(-530.847 -290.823)" style="fill:#ff8f1f"/>
        <g data-name="마스크 그룹 126" transform="translate(-56.489 21.913)" style="clip-path:url(#7skl9fmfza)">
            <path data-name="패스 210466" d="M537.847 316.307a7 7 0 1 0 7-7 7 7 0 0 0-7 7z" transform="translate(-478.357 -305.217)" style="fill:#ff8f1f"/>
        </g>
    </g>
    <path data-name="패스 210452" d="M-4025-2251v-13a12.955 12.955 0 0 1 9.193 3.808A12.954 12.954 0 0 1-4012-2251z" transform="translate(4045 2268)" style="fill:#2d73c5;stroke:transparent"/>
</svg>
