<svg id="alert_on_24" data-name="alert_on(h24)" xmlns="http://www.w3.org/2000/svg" viewBox="0 0 24 24">
  <g id="keyline_24px" data-name="keyline/24px">
    <g id="bounding-box">
      <path id="shape" d="M0,0H24V24H0Z" fill="none"/>
    </g>
  </g>
  <g id="icon" transform="translate(-1783.5 -21.5)">
    <path id="빼기_174" data-name="빼기 174" d="M11,4H3a4,4,0,1,1,8,0Z" transform="translate(1802.5 43.5) rotate(180)" fill="#ff8f1f"/>
    <line id="선_2974" data-name="선 2974" x2="18" transform="translate(1786.5 37.8)" fill="none" stroke="#ff8f1f" stroke-width="1.5"/>
    <line id="선_2975" data-name="선 2975" y1="2" transform="translate(1795.5 23.5)" fill="none" stroke="#ff8f1f" stroke-width="1.5"/>
    <path id="사각형_151473" data-name="사각형 151473" d="M7,0H7a7,7,0,0,1,7,7v6.73a0,0,0,0,1,0,0H0a0,0,0,0,1,0,0V7A7,7,0,0,1,7,0Z" transform="translate(1788.5 24.8)" fill="#ff8f1f"/>
  </g>
</svg>
