<svg id="alert_off_24" data-name="alert(h24)" xmlns="http://www.w3.org/2000/svg" viewBox="0 0 24 24">
  <g id="keyline_24px" data-name="keyline/24px">
    <g id="bounding-box">
      <path id="shape" d="M0,0H24V24H0Z" fill="none"/>
    </g>
  </g>
  <g id="icon" transform="translate(-1783.5 -21.5)">
    <path id="빼기_173" data-name="빼기 173" d="M4.5,4H3a4,4,0,1,1,8,0H9.5a2.5,2.5,0,1,0-5,0Z" transform="translate(1802.5 43.5) rotate(180)" fill="#222"/>
    <line id="선_2974" data-name="선 2974" x2="18" transform="translate(1786.5 37.8)" fill="none" stroke="#222" stroke-width="1.5"/>
    <line id="선_2975" data-name="선 2975" y1="2" transform="translate(1795.5 23.5)" fill="none" stroke="#222" stroke-width="1.5"/>
    <g id="사각형_151473" data-name="사각형 151473" transform="translate(1788.5 24.8)" fill="none" stroke="#222" stroke-width="1.5">
      <path d="M7,0H7a7,7,0,0,1,7,7v6.73a0,0,0,0,1,0,0H0a0,0,0,0,1,0,0V7A7,7,0,0,1,7,0Z" stroke="none"/>
      <path d="M7,.75H7A6.25,6.25,0,0,1,13.25,7v5.98a0,0,0,0,1,0,0H.75a0,0,0,0,1,0,0V7A6.25,6.25,0,0,1,7,.75Z" fill="none"/>
    </g>
  </g>
</svg>
