<svg data-name="alert(h24)" id="alert_24" xmlns="http://www.w3.org/2000/svg" width="24" height="24" viewBox="0 0 24 24">
    <defs>
        <clipPath id="3b8bila9ia">
            <path data-name="사각형 151474" style="fill:#fff;stroke:#707070" d="M0 0h8v4H0z"/>
        </clipPath>
    </defs>
    <path d="M0 0h24v24H0z" style="fill:none" data-name="keyline/24px"/>
    <g data-name="그룹 147436">
        <g data-name="마스크 그룹 113" style="clip-path:url(#3b8bila9ia)" transform="translate(8 18)">
            <g data-name="타원 5193" transform="translate(0 -4)" style="stroke:#222;stroke-width:1.5px;fill:none">
                <circle cx="4" cy="4" r="4" style="stroke:none"/>
                <circle cx="4" cy="4" r="3.25" style="fill:none"/>
            </g>
        </g>
    </g>
    <path data-name="선 2974" transform="translate(3 16.3)" style="stroke:#222;stroke-width:1.5px;fill:none" d="M0 0h18"/>
    <path data-name="선 2975" transform="translate(12 2)" style="stroke:#222;stroke-width:1.5px;fill:none" d="M0 2V0"/>
    <g data-name="사각형 151473" style="stroke:#222;stroke-width:1.5px;fill:none">
        <path d="M7 0a7 7 0 0 1 7 7v6.73H0V7a7 7 0 0 1 7-7z" style="stroke:none" transform="translate(5 3.3)"/>
        <path d="M7 .75A6.25 6.25 0 0 1 13.25 7v5.98H.75V7A6.25 6.25 0 0 1 7 .75z" style="fill:none" transform="translate(5 3.3)"/>
    </g>
</svg>
