<svg id="calendar_24" data-name="calendar_24" xmlns="http://www.w3.org/2000/svg"  viewBox="0 0 24 24">
    <path d="M0 0h24v24H0z" style="fill:none" data-name="keyline/24px"/>
    <g data-name="사각형 151162" style="stroke:#222;stroke-width:1.5px;fill:none">
        <path style="stroke:none" d="M0 0h20v16H0z" transform="translate(2 5)"/>
        <path style="fill:none" d="M.75.75h18.5v14.5H.75z" transform="translate(2 5)"/>
    </g>
    <path data-name="사각형 151176" transform="translate(2 9)" style="fill:#222" d="M0 0h17v1.5H0z"/>
    <g data-name="그룹 147437">
        <path data-name="패스 210107" d="M0 0h1.5v3H0z" transform="translate(7 3)" style="fill:#222"/>
        <path data-name="사각형 151178" transform="translate(15.5 3)" style="fill:#222" d="M0 0h1.5v3H0z"/>
    </g>
    <g data-name="그룹 147438">
        <path data-name="사각형 151179" transform="translate(6.998 12)" style="fill:#222" d="M0 0h2v2H0z"/>
        <path data-name="사각형 151481" transform="translate(6.998 16)" style="fill:#222" d="M0 0h2v2H0z"/>
        <path data-name="사각형 151477" transform="translate(10.998 12)" style="fill:#222" d="M0 0h2v2H0z"/>
        <path data-name="사각형 151480" transform="translate(10.998 16)" style="fill:#222" d="M0 0h2v2H0z"/>
        <path data-name="사각형 151478" transform="translate(14.998 12)" style="fill:#222" d="M0 0h2v2H0z"/>
        <path data-name="사각형 151479" transform="translate(14.998 16)" style="fill:#222" d="M0 0h2v2H0z"/>
    </g>
</svg>
