<svg id="certi_24" data-name="certi(h24)" xmlns="http://www.w3.org/2000/svg" viewBox="0 0 24 24">
    <g style="opacity:.5">
        <path d="M0 0h24v24H0z" style="fill:none" data-name="keyline/24px"/>
    </g>
    <g data-name="패스 210389" style="stroke-linecap:round;fill:none">
        <path d="M88.406 167.545v7.813s-.173 5.836 8 9.429c0 0 8-3.32 8-9.332v-7.909s-5.337-.21-8-2.677c-.001-.001-2.174 2.354-8 2.676z" style="stroke:none" transform="translate(-84.405 -162.827)"/>
        <path d="M96.415 166.768c-.313.207-.697.434-1.16.662-1.524.755-3.319 1.254-5.35 1.492v6.471c.002.112.04 1.3.854 2.806 1.08 1.998 2.975 3.656 5.641 4.935 1.684-.838 6.505-3.592 6.505-7.68v-6.544c-1.652-.214-4.395-.763-6.49-2.142m-.01-1.9c2.663 2.467 8 2.677 8 2.677v7.91c0 6.011-8 9.331-8 9.331-8.172-3.592-8-9.428-8-9.428v-7.813c5.827-.322 8-2.677 8-2.677z" style="fill:currentColor;stroke:none" transform="translate(-84.405 -162.827)"/>
    </g>
    <path data-name="패스 210122" d="m4.926 5.092 2.466 2.321 3.931-3.951" transform="translate(3.875 6.538)" style="stroke:currentColor;stroke-width:1.5px;fill:none"/>
</svg>
