<svg id="delete" data-name="delete(h16)" xmlns="http://www.w3.org/2000/svg" viewBox="0 0 16 16">
    <g data-name="keyline/16px">
        <path d="M0 0h16v16H0z" style="fill:none"/>
        <g style="stroke-miterlimit:10;fill:none">
            <path d="M2-1a3 3 0 1 1-3 3 3 3 0 0 1 3-3z" style="stroke:none" transform="translate(6 6)"/>
            <path d="M2-.9C.4-.9-.9.4-.9 2-.9 3.6.4 4.9 2 4.9c1.6 0 2.9-1.3 2.9-2.9C4.9.4 3.6-.9 2-.9M2-1a3 3 0 1 1 0 6 3 3 0 0 1 0-6z" style="fill:#cdcdcd;stroke:none" transform="translate(6 6)"/>
        </g>
        <g style="stroke-miterlimit:10;fill:none">
            <path d="M1 0h10a1 1 0 0 1 1 1v10a1 1 0 0 1-1 1H1a1 1 0 0 1-1-1V1a1 1 0 0 1 1-1z" style="stroke:none" transform="translate(2 2)"/>
            <path d="M1 .1C.504.1.1.504.1 1v10c0 .496.404.9.9.9h10c.496 0 .9-.404.9-.9V1c0-.496-.404-.9-.9-.9H1M1 0h10a1 1 0 0 1 1 1v10a1 1 0 0 1-1 1H1a1 1 0 0 1-1-1V1a1 1 0 0 1 1-1z" style="fill:#cdcdcd;stroke:none" transform="translate(2 2)"/>
        </g>
        <g style="stroke-miterlimit:10;fill:none">
            <path d="M1-1h8a1 1 0 0 1 1 1v12a1 1 0 0 1-1 1H1a1 1 0 0 1-1-1V0a1 1 0 0 1 1-1z" style="stroke:none" transform="translate(3 2)"/>
            <path d="M1-.9C.504-.9.1-.496.1 0v12c0 .496.404.9.9.9h8c.496 0 .9-.404.9-.9V0c0-.496-.404-.9-.9-.9H1M1-1h8a1 1 0 0 1 1 1v12a1 1 0 0 1-1 1H1a1 1 0 0 1-1-1V0a1 1 0 0 1 1-1z" style="fill:#cdcdcd;stroke:none" transform="translate(3 2)"/>
        </g>
        <g style="stroke-miterlimit:10;fill:none">
            <path d="M1-1h12a1 1 0 0 1 1 1v8a1 1 0 0 1-1 1H1a1 1 0 0 1-1-1V0a1 1 0 0 1 1-1z" style="stroke:none" transform="translate(1 4)"/>
            <path d="M1-.9C.504-.9.1-.496.1 0v8c0 .496.404.9.9.9h12c.496 0 .9-.404.9-.9V0c0-.496-.404-.9-.9-.9H1M1-1h12a1 1 0 0 1 1 1v8a1 1 0 0 1-1 1H1a1 1 0 0 1-1-1V0a1 1 0 0 1 1-1z" style="fill:#cdcdcd;stroke:none" transform="translate(1 4)"/>
        </g>
        <path d="m0 0 15 15" style="stroke:#cdcdcd;stroke-linecap:square;stroke-width:.1px;stroke-miterlimit:10;fill:none" transform="translate(.5 .5)"/>
        <path data-name="Line" d="M0 15 15 0" style="stroke:#cdcdcd;stroke-linecap:square;stroke-width:.1px;stroke-miterlimit:10;fill:none" transform="translate(.5 .5)"/>
        <g style="stroke-miterlimit:10;fill:none">
            <path d="M7 0a7 7 0 1 1-7 7 7 7 0 0 1 7-7z" style="stroke:none" transform="translate(1 1)"/>
            <path d="M7 .1A6.908 6.908 0 0 0 .1 7c0 3.805 3.095 6.9 6.9 6.9s6.9-3.095 6.9-6.9S10.805.1 7 .1M7 0a7 7 0 1 1 0 14A7 7 0 0 1 7 0z" style="fill:#cdcdcd;stroke:none" transform="translate(1 1)"/>
        </g>
    </g>
    <g data-name="패스 210122" style="fill:none">
        <path d="M1 2h12l-1 11.5H2z" style="stroke:none" transform="translate(1 1.5)"/>
        <path d="m2.636 3.5.74 8.5h7.249l.739-8.5H2.636M1 2h12l-1 11.5H2L1 2z" style="fill:currentColor;stroke:none" transform="translate(1 1.5)"/>
    </g>
    <path data-name="사각형 151176" transform="translate(4.5 1)" style="fill:currentColor" d="M0 0h7v1.5H0z"/>
    <path data-name="사각형 151520" transform="translate(1 3.5)" style="fill:currentColor" d="M0 0h14v1.5H0z"/>
    <path data-name="사각형 151521" transform="rotate(90 .625 6.625)" style="fill:currentColor" d="M0 0h6.5v1.5H0z"/>
    <path data-name="사각형 151522" transform="rotate(90 2.125 8.125)" style="fill:currentColor" d="M0 0h6.5v1.5H0z"/>
</svg>
