<svg id="notice_off" data-name="notice(h16)" xmlns="http://www.w3.org/2000/svg" viewBox="0 0 16 16">
    <path d="M0 0h16v16H0z" style="fill:none" data-name="keyline/16px"/>
    <path data-name="사각형 151626" transform="rotate(90 4.37 6.63)" style="fill:#222" d="M0 0h11.221v1.5H0z"/>
    <path data-name="패스 210141" d="m-.022.1 6.205-.726-.929 1.61-6.182.689z" transform="rotate(-30 11.688 -8.784)" style="fill:#222"/>
    <path data-name="패스 210142" d="m.148 1.77 5.972.352L5.224.569-.714.277z" transform="rotate(30 -15.56 17.691)" style="fill:#222"/>
    <g data-name="사각형 151566" style="stroke:#222;stroke-width:1.5px;fill:none">
        <path style="stroke:none" d="M0 0h3.5v7H0z" transform="translate(1 5.033)"/>
        <path style="fill:none" d="M.75.75h2v5.5h-2z" transform="translate(1 5.033)"/>
    </g>
    <path data-name="패스 210124" d="M0 2.5.725 0" transform="rotate(30 1.98 26.294)" style="stroke:#222;stroke-width:1.5px;fill:none"/>
    <path data-name="패스 210143" d="M0 2.5.725 0" transform="rotate(120 3.648 10.295)" style="stroke:#222;stroke-width:1.5px;fill:none"/>
    <path data-name="선 3269" transform="translate(12.5 8.029)" style="stroke:#222;stroke-width:1.5px;fill:none" d="M0 0h2.5"/>
</svg>
