<svg id="pdf" data-name="pdf(h16)" xmlns="http://www.w3.org/2000/svg" viewBox="0 0 16 16">
  <g id="keyline_16px" data-name="keyline/16px">
    <g id="bounding-box">
      <path id="shape" d="M0,0H16V16H0Z" fill="none"/>
    </g>
    <g id="keyline" transform="translate(0.5 0.5)">
      <g id="center" transform="translate(4.5 4.5)" fill="none" stroke-miterlimit="10">
        <path d="M3,0A3,3,0,1,1,0,3,3,3,0,0,1,3,0Z" stroke="none"/>
        <path d="M 3 0.09999990463256836 C 1.400929927825928 0.09999990463256836 0.09999990463256836 1.400929927825928 0.09999990463256836 3 C 0.09999990463256836 4.599070072174072 1.400929927825928 5.900000095367432 3 5.900000095367432 C 4.599070072174072 5.900000095367432 5.900000095367432 4.599070072174072 5.900000095367432 3 C 5.900000095367432 1.400929927825928 4.599070072174072 0.09999990463256836 3 0.09999990463256836 M 3 0 C 4.65684986114502 0 6 1.34315013885498 6 3 C 6 4.65684986114502 4.65684986114502 6 3 6 C 1.34315013885498 6 0 4.65684986114502 0 3 C 0 1.34315013885498 1.34315013885498 0 3 0 Z" stroke="none" fill="#cdcdcd"/>
      </g>
      <g id="square" transform="translate(1.5 1.5)" fill="none" stroke-miterlimit="10">
        <path d="M1,0H11a1,1,0,0,1,1,1V11a1,1,0,0,1-1,1H1a1,1,0,0,1-1-1V1A1,1,0,0,1,1,0Z" stroke="none"/>
        <path d="M 1 0.1000003814697266 C 0.5037403106689453 0.1000003814697266 0.1000003814697266 0.5037403106689453 0.1000003814697266 1 L 0.1000003814697266 11 C 0.1000003814697266 11.49625968933105 0.5037403106689453 11.89999961853027 1 11.89999961853027 L 11 11.89999961853027 C 11.49625968933105 11.89999961853027 11.89999961853027 11.49625968933105 11.89999961853027 11 L 11.89999961853027 1 C 11.89999961853027 0.5037403106689453 11.49625968933105 0.1000003814697266 11 0.1000003814697266 L 1 0.1000003814697266 M 1 0 L 11 0 C 11.55228042602539 0 12 0.4477100372314453 12 1 L 12 11 C 12 11.55228042602539 11.55228042602539 12 11 12 L 1 12 C 0.4477100372314453 12 0 11.55228042602539 0 11 L 0 1 C 0 0.4477100372314453 0.4477100372314453 0 1 0 Z" stroke="none" fill="#cdcdcd"/>
      </g>
      <g id="vertical-rectangle" transform="translate(2.5 0.5)" fill="none" stroke-miterlimit="10">
        <path d="M1,0H9a1,1,0,0,1,1,1V13a1,1,0,0,1-1,1H1a1,1,0,0,1-1-1V1A1,1,0,0,1,1,0Z" stroke="none"/>
        <path d="M 1 0.1000003814697266 C 0.5037403106689453 0.1000003814697266 0.1000003814697266 0.5037403106689453 0.1000003814697266 1 L 0.1000003814697266 13 C 0.1000003814697266 13.49625968933105 0.5037403106689453 13.89999961853027 1 13.89999961853027 L 9 13.89999961853027 C 9.496259689331055 13.89999961853027 9.899999618530273 13.49625968933105 9.899999618530273 13 L 9.899999618530273 1 C 9.899999618530273 0.5037403106689453 9.496259689331055 0.1000003814697266 9 0.1000003814697266 L 1 0.1000003814697266 M 1 0 L 9 0 C 9.552289962768555 0 10 0.4477100372314453 10 1 L 10 13 C 10 13.55228042602539 9.552289962768555 14 9 14 L 1 14 C 0.4477100372314453 14 0 13.55228042602539 0 13 L 0 1 C 0 0.4477100372314453 0.4477100372314453 0 1 0 Z" stroke="none" fill="#cdcdcd"/>
      </g>
      <g id="horizontal-rectangle" transform="translate(0.5 2.5)" fill="none" stroke-miterlimit="10">
        <path d="M1,0H13a1,1,0,0,1,1,1V9a1,1,0,0,1-1,1H1A1,1,0,0,1,0,9V1A1,1,0,0,1,1,0Z" stroke="none"/>
        <path d="M 1 0.1000003814697266 C 0.5037403106689453 0.1000003814697266 0.1000003814697266 0.5037403106689453 0.1000003814697266 1 L 0.1000003814697266 9 C 0.1000003814697266 9.496259689331055 0.5037403106689453 9.899999618530273 1 9.899999618530273 L 13 9.899999618530273 C 13.49625968933105 9.899999618530273 13.89999961853027 9.496259689331055 13.89999961853027 9 L 13.89999961853027 1 C 13.89999961853027 0.5037403106689453 13.49625968933105 0.1000003814697266 13 0.1000003814697266 L 1 0.1000003814697266 M 1 0 L 13 0 C 13.55228042602539 0 14 0.4477100372314453 14 1 L 14 9 C 14 9.552289962768555 13.55228042602539 10 13 10 L 1 10 C 0.4477100372314453 10 0 9.552289962768555 0 9 L 0 1 C 0 0.4477100372314453 0.4477100372314453 0 1 0 Z" stroke="none" fill="#cdcdcd"/>
      </g>
      <path id="Line" d="M0,0,15,15" fill="none" stroke="#cdcdcd" stroke-linecap="square" stroke-miterlimit="10" stroke-width="0.1"/>
      <path id="Line-2" data-name="Line" d="M0,15,15,0" fill="none" stroke="#cdcdcd" stroke-linecap="square" stroke-miterlimit="10" stroke-width="0.1"/>
      <g id="oval" transform="translate(0.5 0.5)" fill="none" stroke-miterlimit="10">
        <path d="M7,0A7,7,0,1,1,0,7,7,7,0,0,1,7,0Z" stroke="none"/>
        <path d="M 7 0.1000003814697266 C 3.195329666137695 0.1000003814697266 0.1000003814697266 3.195329666137695 0.1000003814697266 7 C 0.1000003814697266 10.8046703338623 3.195329666137695 13.89999961853027 7 13.89999961853027 C 10.8046703338623 13.89999961853027 13.89999961853027 10.8046703338623 13.89999961853027 7 C 13.89999961853027 3.195329666137695 10.8046703338623 0.1000003814697266 7 0.1000003814697266 M 7 0 C 10.86598968505859 0 14 3.134010314941406 14 7 C 14 10.86598968505859 10.86598968505859 14 7 14 C 3.134010314941406 14 0 10.86598968505859 0 7 C 0 3.134010314941406 3.134010314941406 0 7 0 Z" stroke="none" fill="#cdcdcd"/>
      </g>
    </g>
  </g>
  <g id="icon">
    <rect id="사각형_151563" data-name="사각형 151563" width="16" height="16" fill="#b30b00"/>
    <path id="icon_pdf" d="M8.172,5.768a12.406,12.406,0,0,0-1.66.151A6.993,6.993,0,0,1,5.086,3.965a7.824,7.824,0,0,0,.456-2.347A1.781,1.781,0,0,0,5.181.3.937.937,0,0,0,4.512,0c-.319,0-.853.166-.853,1.276a6.062,6.062,0,0,0,.557,2.25A23.082,23.082,0,0,1,2.753,7C.2,7.993,0,8.95,0,9.222,0,9.709.337,10,.9,10c1.372,0,2.624-2.372,2.831-2.784a14.6,14.6,0,0,1,2.61-.706A3.967,3.967,0,0,0,8.851,7.692c.344,0,1.149,0,1.149-.852,0-.791-.985-1.072-1.828-1.072m-.066.559c.741,0,.937.252.937.386,0,.084-.031.357-.428.357A2.976,2.976,0,0,1,7.038,6.4a8.057,8.057,0,0,1,1.068-.071M4.473.542a.164.164,0,0,1,.149.075A3.736,3.736,0,0,1,4.453,2.7,3.61,3.61,0,0,1,4.313.643a.172.172,0,0,1,.159-.1M4.113,6.5c.268-.558.569-1.371.733-1.831A8.852,8.852,0,0,0,5.869,6.044c-.794.172-1.395.345-1.757.458M.533,9.3a.152.152,0,0,1-.007-.122c.028-.114.241-.682,1.786-1.393a7.341,7.341,0,0,1-.946,1.254c-.267.258-.475.388-.619.388A.266.266,0,0,1,.533,9.3" transform="translate(3 3)" fill="#fff"/>
  </g>
</svg>
