<svg id="price_cycle_24" data-name="price2(h24)" xmlns="http://www.w3.org/2000/svg" xmlns:xlink="http://www.w3.org/1999/xlink" viewBox="0 0 24.001 24">
  <defs>
    <clipPath id="clip-path">
      <rect id="사각형_151485" data-name="사각형 151485" width="24" height="24" transform="translate(-3.999 -2)" fill="none"/>
    </clipPath>
  </defs>
  <g id="keyline_24px" data-name="keyline/24px">
    <g id="bounding-box">
      <path id="shape" d="M0,0H24V24H0Z" fill="none"/>
    </g>
  </g>
  <g id="icon" transform="translate(4 2)">
    <g id="line_mask" data-name="line mask" clip-path="url(#clip-path)">
      <g id="line">
        <g id="그룹_147439" data-name="그룹 147439">
          <path id="타원_5193" data-name="타원 5193" d="M10,0A10,10,0,0,1,20,10h0s0,.005,0,.007,0,0,0,0,0,0,0,.005v.017h0v.055h0v.032h0v.031h0v.023h0V10.2h0v.008h0v.023h0v.008h0v.022h0V10.3h0v.032h0v.022h0v.031h0v.086h0v.032h0v.054h0v.032h0v.119h0V10.8h0v.022h0v.063h0v.053h0v.031h0v.03h0v.085h0v.085h0V11.2h0v.03h0v.031h0v.03h0v.021h0v.024l0,.014v.024h0v.022h0v.007h0v.015l0,.014v.024h0v.021h0V11.5h0v.021h0v.031h0v.053h0v.031h0v.022h0v.007h0v.023h0v.031h0v.031h0v.021h0v.007h0v.022h0v.031h0v.021h0v.007h0v.021h0v.03h0v.052h0v.03h0v.052h0v.023l0,.014v.016l0,.007h0v.021h0l0,.007h0v.015l0,.014V12.2l0,.007h0v.021h0l0,.007h0v.021h0l0,.007h0v.015l0,.007h0l0,.007v.015h0l0,.007h0v.015l0,.014h0v.013h0l0,.014v.009l0,.006h0l0,.014v.007h0l0,.007h0l0,.007h0v.013h0l0,.014h0l0,.006v.008h0l0,.007h0l0,.007v.015h0l0,.007v.016l0,.007h0l0,.007v.014h0l0,.014v.009l0,.006h0l0,.007h0l0,.006v.009l0,.006h0l0,.007h0v.013h0l0,.014h0l0,.006h0l0,.006h0l0,.007h0l0,.006v0l0,.006h0l0,.014h0l0,.006v0l0,.006h0l0,.014h0l0,.006h0l0,.006h0l0,.007h0l0,.007v0l0,.006h0l0,.007h0l0,.007h0l0,.006v0l0,.006h0l0,.014h0l0,.006v0l0,.006h0l0,.014h0l0,.005v0l0,.006h0l0,.007h0l0,.006h0l0,.006v0l0,.014h0l0,.006h0l0,.006h0l0,.014h0l0,.006h0l0,.006h0l0,.007h0l0,.006v0l0,.005v0l0,.006h0l0,.007h0l0,.005v0l0,.005h0l0,.014h0l0,.006h0l0,.006h0l0,.007h0l0,.007h0l0,.006h0l0,.014h0l0,.006h0l0,.006h0l0,.014h0l0,.006h0l0,.007h0l0,.014h0l0,.006h0l-.007.021h0l0,.006h0l0,.014h0l0,.006h0l0,.006h0l0,.014h0l0,.006h0l0,.006h0l0,.007h0l0,.006h0l0,.006h0l0,.014h0l0,.007h0l0,.006h0l0,.014h0l0,.006h0l-.007.021h0l0,.006h0l0,.014h0l0,.006h0l0,.006h0l0,.014h0l0,.006h0l0,.006h0l0,.007h0l0,.007h0l0,.006h0l0,.014h0l0,.006h0l0,.006h0l0,.014v0l0,.005v0l0,.006h0l-.005.014h0l0,.006h0l-.008.021h0l0,.006h0l-.005.014h0l0,.006h0l0,.006h0l-.005.014h0l0,.006h0l-.008.02h0l0,.006h0l-.005.014h0l0,.006h0l0,.006h0l-.005.014h0l0,.006h0l0,.007h0l-.005.014h0l0,.006h0l-.005.014h0l0,.006h0l0,.006h0l-.006.014h0l0,.006h0l0,.006h0l-.006.014h0l0,.006h0l-.008.021h0l0,.007h0l-.006.014h0l0,.006h0l-.009.021h0l0,.007h0l-.009.021h0l0,.007h0l-.009.021h0l0,.007h0l-.006.014h0l0,.006h0l-.009.02h0l0,.006h0l-.006.014h0l0,.006h0l0,.006h0l-.006.014h0l0,.006h0l0,.007h0l-.006.014h0l0,.006h0l-.009.02h0l0,.007h0l-.006.014h0l0,.007h0l-.009.02h0l0,.007h0l-.009.021h0l0,.007h0l-.006.014h0l0,.006h0l-.009.02h0l0,.007h0l-.009.02h0l-.013.027h0l-.013.027h0l-.01.02h0l0,.007h0l-.013.027h0l-.01.02h0l-.01.02h0l0,.006h0l-.01.02h0l-.013.027h0q-.043.089-.088.176h0a10.044,10.044,0,0,1-4.273,4.312h0l-.074.038h0l-.027.014h0l-.02.01h0l-.027.014h0l-.02.01h0l-.006,0h0l-.02.01h0l-.006,0h0l-.02.01h0l-.007,0h0l-.013.007h0l-.006,0h0l-.006,0h0L14.363,19l-.007,0h0l-.013.006-.006,0-.007,0h0l-.013.006-.006,0-.007,0h0l-.013.006-.006,0-.008,0h0l-.007,0h0l-.006,0-.007,0h0l-.013.006-.006,0-.007,0h0l-.013.006-.006,0-.007,0h0l-.006,0-.006,0-.007,0-.007,0h0l-.006,0-.006,0-.007,0-.008,0h0l-.008,0-.007,0-.006,0-.008,0-.007,0-.006,0-.006,0-.008,0-.007,0-.006,0-.013.006-.006,0-.007,0-.008,0-.006,0-.006,0-.007,0-.008,0-.006,0-.007,0-.007,0-.008,0-.006,0-.006,0-.007,0-.008,0-.006,0-.006,0-.009,0-.006,0-.006,0-.006,0-.009,0-.006,0-.006,0-.006,0-.01,0-.006,0-.006,0-.013.006-.006,0-.006,0h0l-.014.006-.006,0-.006,0h0l-.008,0-.006,0-.006,0h0l-.015.006-.006,0-.006,0h0l-.014.006-.006,0-.006,0h0l-.01,0h0l-.006,0-.006,0-.015.006h0l-.006,0-.005,0-.016.006-.006,0h0l-.022.009h0l-.006,0-.022.008h0l-.028.011h0l-.022.008h0l-.006,0h0l-.022.008h0l-.181.066-.5-1.413A8.5,8.5,0,0,0,10,1.5V0Z" transform="translate(8 -4.142) rotate(45)" fill="#222"/>
          <path id="패스_210109" data-name="패스 210109" d="M18274.215-3412.96l-2,2,2,2" transform="translate(-18277.217 -3345.6) rotate(21)" fill="none" stroke="#222" stroke-width="1.5"/>
        </g>
        <g id="그룹_147441" data-name="그룹 147441" transform="translate(16 20) rotate(180)">
          <path id="타원_5193-2" data-name="타원 5193" d="M10,0A10,10,0,0,1,20,10h0s0,.005,0,.007,0,0,0,0,0,0,0,.005v.017h0v.055h0v.032h0v.031h0v.023h0V10.2h0v.008h0v.023h0v.008h0v.022h0V10.3h0v.032h0v.022h0v.031h0v.086h0v.032h0v.054h0v.032h0v.119h0V10.8h0v.022h0v.063h0v.053h0v.031h0v.03h0v.085h0v.085h0V11.2h0v.03h0v.031h0v.03h0v.021h0v.024l0,.014v.024h0v.022h0v.007h0v.015l0,.014v.024h0v.021h0V11.5h0v.021h0v.031h0v.053h0v.031h0v.022h0v.007h0v.023h0v.031h0v.031h0v.021h0v.007h0v.022h0v.031h0v.021h0v.007h0v.021h0v.03h0v.052h0v.03h0v.052h0v.023l0,.014v.016l0,.007h0v.021h0l0,.007h0v.015l0,.014V12.2l0,.007h0v.021h0l0,.007h0v.021h0l0,.007h0v.015l0,.007h0l0,.007v.015h0l0,.007h0v.015l0,.014h0v.013h0l0,.014v.009l0,.006h0l0,.014v.007h0l0,.007h0l0,.007h0v.013h0l0,.014h0l0,.006v.008h0l0,.007h0l0,.007v.015h0l0,.007v.016l0,.007h0l0,.007v.014h0l0,.014v.009l0,.006h0l0,.007h0l0,.006v.009l0,.006h0l0,.007h0v.013h0l0,.014h0l0,.006h0l0,.006h0l0,.007h0l0,.006v0l0,.006h0l0,.014h0l0,.006v0l0,.006h0l0,.014h0l0,.006h0l0,.006h0l0,.007h0l0,.007v0l0,.006h0l0,.007h0l0,.007h0l0,.006v0l0,.006h0l0,.014h0l0,.006v0l0,.006h0l0,.014h0l0,.005v0l0,.006h0l0,.007h0l0,.006h0l0,.006v0l0,.014h0l0,.006h0l0,.006h0l0,.014h0l0,.006h0l0,.006h0l0,.007h0l0,.006v0l0,.005v0l0,.006h0l0,.007h0l0,.005v0l0,.005h0l0,.014h0l0,.006h0l0,.006h0l0,.007h0l0,.007h0l0,.006h0l0,.014h0l0,.006h0l0,.006h0l0,.014h0l0,.006h0l0,.007h0l0,.014h0l0,.006h0l-.007.021h0l0,.006h0l0,.014h0l0,.006h0l0,.006h0l0,.014h0l0,.006h0l0,.006h0l0,.007h0l0,.006h0l0,.006h0l0,.014h0l0,.007h0l0,.006h0l0,.014h0l0,.006h0l-.007.021h0l0,.006h0l0,.014h0l0,.006h0l0,.006h0l0,.014h0l0,.006h0l0,.006h0l0,.007h0l0,.007h0l0,.006h0l0,.014h0l0,.006h0l0,.006h0l0,.014v0l0,.005v0l0,.006h0l-.005.014h0l0,.006h0l-.008.021h0l0,.006h0l-.005.014h0l0,.006h0l0,.006h0l-.005.014h0l0,.006h0l-.008.02h0l0,.006h0l-.005.014h0l0,.006h0l0,.006h0l-.005.014h0l0,.006h0l0,.007h0l-.005.014h0l0,.006h0l-.005.014h0l0,.006h0l0,.006h0l-.006.014h0l0,.006h0l0,.006h0l-.006.014h0l0,.006h0l-.008.021h0l0,.007h0l-.006.014h0l0,.006h0l-.009.021h0l0,.007h0l-.009.021h0l0,.007h0l-.009.021h0l0,.007h0l-.006.014h0l0,.006h0l-.009.02h0l0,.006h0l-.006.014h0l0,.006h0l0,.006h0l-.006.014h0l0,.006h0l0,.007h0l-.006.014h0l0,.006h0l-.009.02h0l0,.007h0l-.006.014h0l0,.007h0l-.009.02h0l0,.007h0l-.009.021h0l0,.007h0l-.006.014h0l0,.006h0l-.009.02h0l0,.007h0l-.009.02h0l-.013.027h0l-.013.027h0l-.01.02h0l0,.007h0l-.013.027h0l-.01.02h0l-.01.02h0l0,.006h0l-.01.02h0l-.013.027h0q-.043.089-.088.176h0a10.044,10.044,0,0,1-4.273,4.312h0l-.074.038h0l-.027.014h0l-.02.01h0l-.027.014h0l-.02.01h0l-.006,0h0l-.02.01h0l-.006,0h0l-.02.01h0l-.007,0h0l-.013.007h0l-.006,0h0l-.006,0h0L14.363,19l-.007,0h0l-.013.006-.006,0-.007,0h0l-.013.006-.006,0-.007,0h0l-.013.006-.006,0-.008,0h0l-.007,0h0l-.006,0-.007,0h0l-.013.006-.006,0-.007,0h0l-.013.006-.006,0-.007,0h0l-.006,0-.006,0-.007,0-.007,0h0l-.006,0-.006,0-.007,0-.008,0h0l-.008,0-.007,0-.006,0-.008,0-.007,0-.006,0-.006,0-.008,0-.007,0-.006,0-.013.006-.006,0-.007,0-.008,0-.006,0-.006,0-.007,0-.008,0-.006,0-.007,0-.007,0-.008,0-.006,0-.006,0-.007,0-.008,0-.006,0-.006,0-.009,0-.006,0-.006,0-.006,0-.009,0-.006,0-.006,0-.006,0-.01,0-.006,0-.006,0-.013.006-.006,0-.006,0h0l-.014.006-.006,0-.006,0h0l-.008,0-.006,0-.006,0h0l-.015.006-.006,0-.006,0h0l-.014.006-.006,0-.006,0h0l-.01,0h0l-.006,0-.006,0-.015.006h0l-.006,0-.005,0-.016.006-.006,0h0l-.022.009h0l-.006,0-.022.008h0l-.028.011h0l-.022.008h0l-.006,0h0l-.022.008h0l-.181.066-.5-1.413A8.5,8.5,0,0,0,10,1.5V0Z" transform="translate(8 -4.142) rotate(45)" fill="#222"/>
          <path id="패스_210109-2" data-name="패스 210109" d="M18274.215-3412.96l-2,2,2,2" transform="translate(-18277.217 -3345.6) rotate(21)" fill="none" stroke="#222" stroke-width="1.5"/>
        </g>
      </g>
    </g>
    <g id="그룹_147440" data-name="그룹 147440">
      <text id="w" transform="translate(3 14)" fill="#222" stroke="#222" stroke-width="0.3" font-size="12" font-family="NotoSansKR-Medium, Noto Sans KR" font-weight="500"><tspan x="0" y="0">w</tspan></text>
      <line id="선_3149" data-name="선 3149" x2="11" y2="0.097" transform="translate(2.5 10.5)" fill="none" stroke="#222" stroke-width="1.5"/>
    </g>
  </g>
</svg>
