<svg id="qrcode_24" xmlns="http://www.w3.org/2000/svg" viewBox="0 0 24.001 24.001">
    <g data-name="QRcode(h24)">
        <g data-name="keyline/24px">
            <path d="M0 0h24v24H0z" style="fill:none" transform="translate(.001)"/>
            <path data-name="shape" d="M0 0h24v24H0z" style="fill:none" transform="translate(0 .001)"/>
            <path d="M5 0a5 5 0 1 1-5 5 5 5 0 0 1 5-5z" transform="translate(7 7.001)" style="fill:none"/>
            <path d="M1 0h16a1 1 0 0 1 1 1v16a1 1 0 0 1-1 1H1a1 1 0 0 1-1-1V1a1 1 0 0 1 1-1z" transform="translate(3 3.001)" style="fill:none"/>
            <path d="M1 0h14a1 1 0 0 1 1 1v18a1 1 0 0 1-1 1H1a1 1 0 0 1-1-1V1a1 1 0 0 1 1-1z" transform="translate(4 2.001)" style="fill:none"/>
            <path d="M1 0h18a1 1 0 0 1 1 1v14a1 1 0 0 1-1 1H1a1 1 0 0 1-1-1V1a1 1 0 0 1 1-1z" transform="translate(2 4.001)" style="fill:none"/>
            <path d="m.5.5 23 23" style="fill:none" transform="translate(0 .001)"/>
            <path data-name="Line" d="m.5 23.5 23-23" style="fill:none" transform="translate(0 .001)"/>
            <path d="M10 0A10 10 0 1 1 0 10 10 10 0 0 1 10 0z" transform="translate(2 2.001)" style="fill:none"/>
        </g>
        <path data-name="사각형 151563" transform="rotate(-90 14.16 1.414)" style="fill:#222" d="M0 0h4.324v1.5H0z"/>
        <path data-name="사각형 151630" transform="rotate(-90 16.874 4.127)" style="fill:#222" d="M0 0h3.735v1.5H0z"/>
        <path data-name="사각형 151566" transform="rotate(180 7.123 6.375)" style="fill:#222" d="M0 0h5.746v1.5H0z"/>
        <path data-name="사각형 151631" transform="rotate(180 8.273 10.5)" style="fill:#222" d="M0 0h3.746v1.5H0z"/>
        <path data-name="사각형 151572" transform="rotate(180 2.75 6.375)" style="fill:#222" d="M0 0h3v1.5H0z"/>
        <path data-name="사각형 151632" transform="rotate(180 10.75 10.5)" style="fill:#222" d="M0 0h2.318v1.5H0z"/>
        <path data-name="사각형 151633" transform="rotate(180 10.75 8.537)" style="fill:#222" d="M0 0h5.174v1.5H0z"/>
        <path data-name="사각형 151634" transform="rotate(180 10.75 6.375)" style="fill:#222" d="M0 0h3v1.5H0z"/>
        <path data-name="사각형 151575" transform="rotate(180 6.4 4.5)" style="fill:#222" d="M0 0h1.5v6H0z"/>
        <g data-name="사각형 151629" style="stroke:#222;stroke-width:1.5px;fill:none">
            <path style="stroke:none" d="M0 0h6v6H0z" transform="rotate(-90 11.751 9.25)"/>
            <path style="fill:none" d="M.75.75h4.5v4.5H.75z" transform="rotate(-90 11.751 9.25)"/>
        </g>
        <g data-name="사각형 151569" style="stroke:#222;stroke-width:1.5px;fill:none">
            <path style="stroke:none" d="M0 0h6v6H0z" transform="rotate(-90 5.75 3.249)"/>
            <path style="fill:none" d="M.75.75h4.5v4.5H.75z" transform="rotate(-90 5.75 3.249)"/>
        </g>
        <g data-name="사각형 151628" style="stroke:#222;stroke-width:1.5px;fill:none">
            <path style="stroke:none" d="M0 0h6v6H0z" transform="rotate(-90 12.25 -3.251)"/>
            <path style="fill:none" d="M.75.75h4.5v4.5H.75z" transform="rotate(-90 12.25 -3.251)"/>
        </g>
    </g>
</svg>
