<svg id="report" data-name="report(h16)" xmlns="http://www.w3.org/2000/svg" viewBox="0 0 16 16">
  <g id="keyline_16px" data-name="keyline/16px">
    <g id="bounding-box">
      <path id="shape" d="M0,0H16V16H0Z" fill="none"/>
    </g>
  </g>
  <g id="icon" transform="translate(1.953 4)">
    <g id="사각형_151611" data-name="사각형 151611" transform="translate(0.046 -3)" fill="none" stroke="#222" stroke-width="1.5" stroke-dasharray="22 8">
      <rect width="12" height="14" stroke="none"/>
      <rect x="0.75" y="0.75" width="10.5" height="12.5" fill="none"/>
    </g>
    <rect id="사각형_151176" data-name="사각형 151176" width="6" height="1.5" transform="translate(3.047 0)" fill="#222"/>
    <rect id="사각형_151610" data-name="사각형 151610" width="4" height="1.5" transform="translate(3.047 2.5)" fill="#222"/>
    <line id="선_3175" data-name="선 3175" y1="4" transform="translate(7.547 6.5)" fill="none" stroke="#222" stroke-width="1.5"/>
    <line id="선_3174" data-name="선 3174" transform="translate(10.547 8.5)" fill="none" stroke="#707070" stroke-width="1"/>
    <g id="패스_210125" data-name="패스 210125" transform="translate(7.047 5.25)" fill="#fff">
      <path d="M 4.499995231628418 1 L 0.2412154674530029 1 L 0.2412154674530029 0.5 L 4.499995231628418 0.5 L 4.499995231628418 1 Z" stroke="none"/>
      <path d="M -0.258784294128418 0 L 4.999995231628418 0 L 4.999995231628418 1.5 L -0.258784294128418 1.5 L -0.258784294128418 0 Z" stroke="none" fill="#222"/>
    </g>
    <g id="패스_210126" data-name="패스 210126" transform="translate(11.887 7.22) rotate(135)" fill="#fff">
      <path d="M 4.856789112091064 1.000003337860107 L 0.2390341609716415 1.000003337860107 L 0.2370335906744003 0.5432881712913513 L 4.8673095703125 0.5413028597831726 L 4.856789112091064 1.000003337860107 Z" stroke="none"/>
      <path d="M 5.378914833068848 0.04108345508575439 L 5.345454692840576 1.500003337860107 L -0.2587852478027344 1.500003337860107 L -0.2651653289794922 0.04350340366363525 L 5.378914833068848 0.04108345508575439 Z" stroke="none" fill="#222"/>
    </g>
  </g>
</svg>
