<svg id="report" data-name="report(h16)" xmlns="http://www.w3.org/2000/svg" viewBox="0 0 16 16.046">
  <g id="keyline_16px" data-name="keyline/16px">
    <g id="bounding-box">
      <path id="shape" d="M0,0H16V16H0Z" fill="none"/>
    </g>
  </g>
  <g id="icon" transform="translate(1.953 4)">
    <g id="page" transform="translate(1.046 -4)">
      <rect id="사각형_151624" data-name="사각형 151624" width="11.25" height="1.5" transform="translate(-0.999 1)" fill="#222"/>
      <rect id="사각형_151625" data-name="사각형 151625" width="8" height="1.5" transform="translate(-1 13.5)" fill="#222"/>
      <rect id="사각형_151626" data-name="사각형 151626" width="13" height="1.5" transform="translate(0.501 1) rotate(90)" fill="#222"/>
      <rect id="사각형_151627" data-name="사각형 151627" width="9" height="1.5" transform="translate(11.001 1) rotate(90)" fill="#222"/>
      <line id="선_3175" data-name="선 3175" y1="4" transform="translate(6.501 10.5)" fill="none" stroke="#222" stroke-width="1.5"/>
      <line id="선_3174" data-name="선 3174" transform="translate(9.501 12.5)" fill="none" stroke="#707070" stroke-width="1"/>
      <g id="패스_210125" data-name="패스 210125" transform="translate(6.001 9.25)" fill="#fff">
        <path d="M 4.497560977935791 1.22900390625 L 0.2490210086107254 1.22900390625 L 0.2490210086107254 0.72900390625 L 4.497560977935791 0.72900390625 L 4.497560977935791 1.22900390625 Z" stroke="none"/>
        <path d="M -0.250978946685791 0.22900390625 L 4.997560977935791 0.22900390625 L 4.997560977935791 1.72900390625 L -0.250978946685791 1.72900390625 L -0.250978946685791 0.22900390625 Z" stroke="none" fill="#222"/>
      </g>
      <g id="패스_210143" data-name="패스 210143" transform="translate(10.83 11.232) rotate(135)" fill="#fff">
        <path d="M 5.630615234375 1.032503962516785 L -0.5214715003967285 1.006908416748047 L -0.06574619561433792 0.5511799454689026 L 5.134017944335938 0.5359065532684326 L 5.630615234375 1.032503962516785 Z" stroke="none"/>
        <path d="M 5.340506553649902 0.03529572486877441 L 6.842766761779785 1.537555694580078 L -1.723573684692383 1.501915693283081 L -0.2734532356262207 0.05178570747375488 L 5.340506553649902 0.03529572486877441 Z" stroke="none" fill="#222"/>
      </g>
    </g>
    <rect id="사각형_151176" data-name="사각형 151176" width="6" height="1.5" transform="translate(3.047)" fill="#222"/>
    <rect id="사각형_151610" data-name="사각형 151610" width="4" height="1.5" transform="translate(3.047 2.5)" fill="#222"/>
  </g>
</svg>
