<svg id="search_doc_24" data-name="search2(h24)" xmlns="http://www.w3.org/2000/svg" viewBox="0 0 24 24">
    <path d="M0 0h24v24H0z" style="fill:none" data-name="keyline/24px"/>
    <path data-name="선 3158" transform="translate(18.5 19.5)" style="stroke-width:1.5px;stroke-linejoin:round;stroke:#222;fill:none" d="m0 0 2.621 2.621"/>
    <g data-name="타원 5194" transform="translate(12 13)" style="stroke-width:1.5px;stroke:#222;fill:none">
        <circle cx="4" cy="4" r="4" style="stroke:none"/>
        <circle cx="4" cy="4" r="3.25" style="fill:none"/>
    </g>
    <g>
        <path data-name="선 3156" transform="translate(8 7)" style="stroke-width:1.5px;stroke-linejoin:round;stroke:#222;fill:none" d="M8 0H0"/>
        <path data-name="선 3157" transform="translate(8 10)" style="stroke-width:1.5px;stroke-linejoin:round;stroke:#222;fill:none" d="M6 0H0"/>
        <g data-name="사각형 151471" style="stroke:none;stroke-dasharray:26 19;stroke-width:1.5px;fill:none">
            <path style="stroke:none" d="M0 0h16v20H0z" transform="translate(4.001 2)"/>
            <path style="fill:none" d="M.75.75h14.5v18.5H.75z" transform="translate(4.001 2)"/>
        </g>
        <path data-name="사각형 151624" transform="translate(4.001 2)" style="fill:#222" d="M0 0h15v1.5H0z"/>
        <path data-name="사각형 151625" transform="translate(4.001 20.5)" style="fill:#222" d="M0 0h7v1.5H0z"/>
        <path data-name="사각형 151626" transform="rotate(90 1.25 4.25)" style="fill:#222" d="M0 0h18.25v1.5H0z"/>
        <path data-name="사각형 151627" transform="rotate(90 9 11)" style="fill:#222" d="M0 0h10v1.5H0z"/>
    </g>
</svg>
