<svg id="support_24" data-name="support(h24)" xmlns="http://www.w3.org/2000/svg" viewBox="0 0 24 24">
  <g id="keyline_24px" data-name="keyline/24px">
    <path id="bounding-box" d="M0,0H24V24H0Z" fill="none"/>
    <g id="keyline" transform="translate(0.5 0.5)">
      <path id="center" d="M5,0A5,5,0,1,1,0,5,5,5,0,0,1,5,0Z" transform="translate(6.5 6.5)" fill="none"/>
      <path id="square" d="M1,0H17a1,1,0,0,1,1,1V17a1,1,0,0,1-1,1H1a1,1,0,0,1-1-1V1A1,1,0,0,1,1,0Z" transform="translate(2.5 2.5)" fill="none"/>
      <path id="vertical-rectangle" d="M1,0H15a1,1,0,0,1,1,1V19a1,1,0,0,1-1,1H1a1,1,0,0,1-1-1V1A1,1,0,0,1,1,0Z" transform="translate(3.5 1.5)" fill="none"/>
      <path id="horizontal-rectangle" d="M1,0H19a1,1,0,0,1,1,1V15a1,1,0,0,1-1,1H1a1,1,0,0,1-1-1V1A1,1,0,0,1,1,0Z" transform="translate(1.5 3.5)" fill="none"/>
      <path id="Line" d="M0,0,23,23" fill="none"/>
      <path id="Line-2" data-name="Line" d="M0,23,23,0" fill="none"/>
      <path id="oval" d="M10,0A10,10,0,1,1,0,10,10,10,0,0,1,10,0Z" transform="translate(1.5 1.5)" fill="none"/>
    </g>
  </g>
  <g id="icon">
    <g id="page" transform="translate(-21.79 -0.485)">
      <g id="그룹_149110" data-name="그룹 149110" transform="translate(0 -1)">
        <path id="패스_210333" data-name="패스 210333" d="M28.427,3.03H24.79v7.256" transform="translate(0.8 7.255)" fill="none" stroke="#222" stroke-width="1.5"/>
        <path id="패스_210336" data-name="패스 210336" d="M28.24,19.2a1.549,1.549,0,0,1-1.5,1.592h0a2.013,2.013,0,0,1-1.948-2.065V10.159" transform="translate(0.8 0.945)" fill="none" stroke="#222" stroke-width="1.5"/>
      </g>
      <rect id="사각형_151624" data-name="사각형 151624" width="13.61" height="1.5" transform="translate(28.29 3.485)" fill="#222"/>
      <rect id="사각형_151686" data-name="사각형 151686" width="9.981" height="1.5" transform="translate(27.408 19.985)" fill="#222"/>
      <rect id="사각형_151626" data-name="사각형 151626" width="17.72" height="1.5" transform="translate(29.79 3.765) rotate(90)" fill="#222"/>
      <rect id="사각형_151627" data-name="사각형 151627" width="10.085" height="1.5" transform="translate(42.79 3.485) rotate(90)" fill="#222"/>
      <line id="선_3156" data-name="선 3156" x1="7.5" transform="translate(31.79 7.985)" fill="none" stroke="#222" stroke-linejoin="round" stroke-width="1.5"/>
      <line id="선_3157" data-name="선 3157" x1="5.5" transform="translate(31.79 10.985)" fill="none" stroke="#222" stroke-linejoin="round" stroke-width="1.5"/>
    </g>
    <path id="check" d="M4.561,4.725l2.7,2.62,4.3-4.2" transform="translate(10.438 11.356)" fill="none" stroke="#222" stroke-width="1.5"/>
  </g>
</svg>
