<svg id="visual_partner" data-name="login_partner_05(h36)" xmlns="http://www.w3.org/2000/svg" viewBox="0 0 36 36">
    <path style="fill:none" d="M0 0h36v36H0z"/>
    <path data-name="guide" d="M0 0h28v28H0z" transform="translate(4 4)" style="fill:none"/>
    <g>
        <path data-name="합치기 401" d="M0 14.95V3.033h1.809V0l3.31 3.033h12.068V14.95z" transform="rotate(180 15.756 15.688)" style="fill:#f69545"/>
        <g data-name="...2">
            <path data-name="패스 210501" d="M.916 0A.916.916 0 1 1 0 .916.916.916 0 0 1 .916 0z" style="fill:#fff" transform="translate(18.336 21.923)"/>
            <path data-name="패스 210502" d="M.916 0A.916.916 0 1 1 0 .916.916.916 0 0 1 .916 0z" transform="translate(22.002 21.923)" style="fill:#fff"/>
            <path data-name="패스 210503" d="M.916 0A.916.916 0 1 1 0 .916.916.916 0 0 1 .916 0z" transform="translate(25.667 21.923)" style="fill:#fff"/>
        </g>
        <g>
            <path data-name="합치기 400" d="M3.711 14.842H0V0h23.5v14.842H9.721l-6.01 5.267z" transform="translate(4.488 4.588)" style="fill:#2f8af3"/>
            <g data-name="...1">
                <path data-name="패스 210498" d="M1.237 0A1.237 1.237 0 1 1 0 1.237 1.237 1.237 0 0 1 1.237 0z" style="fill:#fff" transform="translate(10.178 10.772)"/>
                <path data-name="패스 210499" d="M1.237 0A1.237 1.237 0 1 1 0 1.237 1.237 1.237 0 0 1 1.237 0z" transform="translate(15.125 10.772)" style="fill:#fff"/>
                <path data-name="패스 210500" d="M1.237 0A1.237 1.237 0 1 1 0 1.237 1.237 1.237 0 0 1 1.237 0z" transform="translate(20.073 10.772)" style="fill:#fff"/>
            </g>
        </g>
    </g>
</svg>
