<svg id="alert_outline" data-name="alert2(h16)" xmlns="http://www.w3.org/2000/svg" viewBox="0 0 16 16">
    <path d="M0 0h16v16H0z" style="fill:none" data-name="keyline/16px"/>
    <path data-name="패스 210505" d="M-4800.926 8008h1.58a1.5 1.5 0 0 0 1.346.84 1.5 1.5 0 0 0 1.347-.84h1.58a3 3 0 0 1-2.927 2.34 3 3 0 0 1-2.926-2.34z" transform="translate(4806 -7995.34)" style="fill:#222"/>
    <path data-name="선 2974" transform="translate(2 11.5)" style="stroke:#222;stroke-width:1.5px;fill:none" d="M0 0h12"/>
    <path data-name="선 2975" transform="translate(8 1)" style="stroke:#222;stroke-width:1.5px;fill:none" d="M0 2V0"/>
    <g data-name="패스 210145" style="fill:none">
        <path d="M5 0a5.269 5.269 0 0 1 5 5.5v4.68H0V5.5A5.269 5.269 0 0 1 5 0z" style="stroke:none" transform="translate(3 2.07)"/>
        <path d="M5 1.5c-1.93 0-3.5 1.796-3.5 4.003V8.68h7V5.503C8.5 3.296 6.93 1.5 5 1.5M5 0c2.761 0 5 2.464 5 5.503v4.677H0V5.503C0 2.463 2.239 0 5 0z" style="fill:#222;stroke:none" transform="translate(3 2.07)"/>
    </g>
</svg>
