<svg id="calendar" xmlns="http://www.w3.org/2000/svg" viewBox="0 0 16 16">
    <path d="M0 0h16v16H0z" style="fill:none" />
    <g style="stroke:#222;stroke-width:1.5px;fill:none">
        <path style="stroke:none" d="M0 0h14v13H0z" transform="translate(1 2)"/>
        <path style="fill:none" d="M.75.75h12.5v11.5H.75z" transform="translate(1 2)"/>
    </g>
    <path transform="translate(1 5)" style="fill:#222" d="M0 0h11v1.5H0z"/>
    <g >
        <path d="M0 0h1.5v2H0z" transform="translate(4 1)" style="fill:#222"/>
        <path transform="translate(10.5 1)" style="fill:#222" d="M0 0h1.5v2H0z"/>
    </g>
    <g >
        <path transform="translate(3.998 8.8)" style="fill:#222" d="M0 0h2v2H0z"/>
        <path transform="translate(6.998 8.8)" style="fill:#222" d="M0 0h2v2H0z"/>
        <path transform="translate(9.998 8.8)" style="fill:#222" d="M0 0h2v2H0z"/>
    </g>
</svg>
