<svg data-name="download(h24)" xmlns="http://www.w3.org/2000/svg" id="download_24" viewBox="0 0 24 24">
    <path d="M0 0h24v24H0z" style="fill:none" transform="rotate(90 12 12)" data-name="keyline/24px"/>
    <path data-name="패스 202519" d="m18278.215-3412.96-6 6 6 6" transform="rotate(-90 10854.087 7435.127)" style="stroke:#222;stroke-width:1.5px;fill:none"/>
    <path data-name="선 3175" transform="rotate(90 -.25 20.25)" style="stroke:#222;stroke-width:1.5px;fill:none" d="M0 16V0"/>
    <path data-name="선 3176" transform="rotate(90 4.5 7.5)" style="stroke:#222;stroke-width:1.5px;fill:none" d="M0 0h13"/>
    <g data-name="패스 210130" style="fill:#fff">
        <path d="M3.5 1h-3V.5h3V1z" style="stroke:none" transform="rotate(-90 12.122 9.123)"/>
        <path d="M0 0h4v1.5H0V0z" style="fill:#222;stroke:none" transform="rotate(-90 12.122 9.123)"/>
    </g>
    <g data-name="패스 210131" style="fill:#fff">
        <path d="M3.5 1h-3V.5h3V1z" style="stroke:none" transform="rotate(-90 20.372 .873)"/>
        <path d="M0 0h4v1.5H0V0z" style="fill:#222;stroke:none" transform="rotate(-90 20.372 .873)"/>
    </g>
</svg>
