<svg data-name="excel(h16)" id="excel" xmlns="http://www.w3.org/2000/svg" viewBox="0 0 16 16">
    <g data-name="keyline/16px">
        <path d="M0 0h16v16H0z" style="fill:none"/>
        <g style="stroke-miterlimit:10;fill:none">
            <path d="M3 0a3 3 0 1 1-3 3 3 3 0 0 1 3-3z" style="stroke:none" transform="translate(5 5)"/>
            <path d="M3 .1C1.4.1.1 1.4.1 3 .1 4.6 1.4 5.9 3 5.9c1.6 0 2.9-1.3 2.9-2.9C5.9 1.4 4.6.1 3 .1M3 0a3 3 0 1 1 0 6 3 3 0 0 1 0-6z" style="fill:#cdcdcd;stroke:none" transform="translate(5 5)"/>
        </g>
        <g style="stroke-miterlimit:10;fill:none">
            <path d="M1 0h10a1 1 0 0 1 1 1v10a1 1 0 0 1-1 1H1a1 1 0 0 1-1-1V1a1 1 0 0 1 1-1z" style="stroke:none" transform="translate(2 2)"/>
            <path d="M1 .1C.504.1.1.504.1 1v10c0 .496.404.9.9.9h10c.496 0 .9-.404.9-.9V1c0-.496-.404-.9-.9-.9H1M1 0h10a1 1 0 0 1 1 1v10a1 1 0 0 1-1 1H1a1 1 0 0 1-1-1V1a1 1 0 0 1 1-1z" style="fill:#cdcdcd;stroke:none" transform="translate(2 2)"/>
        </g>
        <g style="stroke-miterlimit:10;fill:none">
            <path d="M1 0h8a1 1 0 0 1 1 1v12a1 1 0 0 1-1 1H1a1 1 0 0 1-1-1V1a1 1 0 0 1 1-1z" style="stroke:none" transform="translate(3 1)"/>
            <path d="M1 .1C.504.1.1.504.1 1v12c0 .496.404.9.9.9h8c.496 0 .9-.404.9-.9V1c0-.496-.404-.9-.9-.9H1M1 0h8a1 1 0 0 1 1 1v12a1 1 0 0 1-1 1H1a1 1 0 0 1-1-1V1a1 1 0 0 1 1-1z" style="fill:#cdcdcd;stroke:none" transform="translate(3 1)"/>
        </g>
        <g style="stroke-miterlimit:10;fill:none">
            <path d="M1 0h12a1 1 0 0 1 1 1v8a1 1 0 0 1-1 1H1a1 1 0 0 1-1-1V1a1 1 0 0 1 1-1z" style="stroke:none" transform="translate(1 3)"/>
            <path d="M1 .1C.504.1.1.504.1 1v8c0 .496.404.9.9.9h12c.496 0 .9-.404.9-.9V1c0-.496-.404-.9-.9-.9H1M1 0h12a1 1 0 0 1 1 1v8a1 1 0 0 1-1 1H1a1 1 0 0 1-1-1V1a1 1 0 0 1 1-1z" style="fill:#cdcdcd;stroke:none" transform="translate(1 3)"/>
        </g>
        <path d="m0 0 15 15" style="stroke:#cdcdcd;stroke-linecap:square;stroke-width:.1px;stroke-miterlimit:10;fill:none" transform="translate(.5 .5)"/>
        <path data-name="Line" d="M0 15 15 0" style="stroke:#cdcdcd;stroke-linecap:square;stroke-width:.1px;stroke-miterlimit:10;fill:none" transform="translate(.5 .5)"/>
        <g style="stroke-miterlimit:10;fill:none">
            <path d="M7 0a7 7 0 1 1-7 7 7 7 0 0 1 7-7z" style="stroke:none" transform="translate(1 1)"/>
            <path d="M7 .1A6.908 6.908 0 0 0 .1 7c0 3.805 3.095 6.9 6.9 6.9s6.9-3.095 6.9-6.9S10.805.1 7 .1M7 0a7 7 0 1 1 0 14A7 7 0 0 1 7 0z" style="fill:#cdcdcd;stroke:none" transform="translate(1 1)"/>
        </g>
    </g>
    <path data-name="사각형 151535" style="fill:#197f3f" d="M0 0h16v16H0z"/>
    <path data-name="패스 210114" d="M0 0h2.5l7 10H7z" transform="translate(3.25 3)" style="fill:#fff"/>
    <path data-name="패스 210115" d="M9.5 0H7L0 10h2.5z" transform="translate(3.25 3)" style="fill:#fff"/>
    <path data-name="사각형 151536" transform="translate(5.25 11.5)" style="fill:#fff" d="M0 0h3v1.5H0z"/>
</svg>
