<svg id="lnb_bookmark" data-name="bookmark(h16)" xmlns="http://www.w3.org/2000/svg" viewBox="0 0 16 16">
  <g id="keyline_16px" data-name="keyline/16px">
    <g id="bounding-box">
      <path id="shape" style="fill: none;" d="M0,0H16V16H0Z"/>
    </g>
  </g>
  <g id="icon" transform="translate(1 1)">
    <g id="패스_210110" data-name="패스 210110" style="fill: none;" transform="translate(-1 -1)">
      <path style="stroke: none;" d="M8,0l2.68,4.966L16,6.111l-3.664,4.215L12.944,16,8,13.639,3.056,16l.608-5.674L0,6.111,5.32,4.966Z"/>
      <path style="stroke: none; fill: currentColor;" d="M 8 3.158418655395508 L 6.311670303344727 6.286910057067871 L 2.797711372375488 7.04348087310791 L 5.224809646606445 9.835559844970703 L 4.833382606506348 13.48874378204346 L 8 11.97642993927002 L 11.16661739349365 13.48874378204346 L 10.77519035339355 9.835559844970703 L 13.2022876739502 7.04348087310791 L 9.688329696655273 6.286910057067871 L 8 3.158418655395508 M 8 0 L 10.68000030517578 4.966050148010254 L 16 6.111459732055664 L 12.33633041381836 10.3260498046875 L 12.94427013397217 16 L 8 13.63871002197266 L 3.055729866027832 16 L 3.663669586181641 10.3260498046875 L 0 6.111459732055664 L 5.319999694824219 4.966050148010254 L 8 0 Z"/>
    </g>
  </g>
</svg>
