<svg id="notice_24" data-name="notice(h24)" xmlns="http://www.w3.org/2000/svg" viewBox="0 0 24 24">
  <g id="keyline_24px" data-name="keyline/24px">
    <g id="bounding-box">
      <path id="shape" d="M0,0H24V24H0Z" fill="none"/>
    </g>
  </g>
  <g id="icon" transform="translate(-2501.5 613.972)">
    <g id="사각형_151566" data-name="사각형 151566" transform="translate(2504 -605.951)" fill="none" stroke="#222" stroke-width="1.5">
      <rect width="5" height="9" stroke="none"/>
      <rect x="0.75" y="0.75" width="3.5" height="7.5" fill="none"/>
    </g>
    <g id="그룹_149043" data-name="그룹 149043">
      <rect id="사각형_151626" data-name="사각형 151626" width="15.221" height="1.5" transform="translate(2518 -609.8) rotate(90)" fill="#222"/>
      <path id="패스_210141" data-name="패스 210141" d="M-.022.1l9-.505L8.053,1.208l-8.98.465Z" transform="translate(2510.427 -606.101) rotate(-30)" fill="#222"/>
      <path id="패스_210142" data-name="패스 210142" d="M.148,1.77,8.829,1.7,7.973.22-.714.277Z" transform="translate(2511.21 -598.94) rotate(30)" fill="#222"/>
    </g>
    <g id="그룹_148989" data-name="그룹 148989" transform="translate(-3.205 1.053)">
      <path id="패스_210124" data-name="패스 210124" d="M.38,3l.827-3" transform="translate(2523.774 -609.556) rotate(30)" fill="none" stroke="#222" stroke-width="1.5"/>
      <path id="패스_210143" data-name="패스 210143" d="M.38,3l.827-3" transform="translate(2525.407 -597.717) rotate(120)" fill="none" stroke="#222" stroke-width="1.5"/>
      <rect id="사각형_151627" data-name="사각형 151627" width="3" height="1.5" transform="translate(2526.179 -601.888) rotate(180)" fill="#222"/>
    </g>
  </g>
</svg>
