<svg id="pdf_24" data-name="pdf(h24)" xmlns="http://www.w3.org/2000/svg" viewBox="0 0 24.001 24">
    <g data-name="keyline/24px">
        <path d="M0 0h24v24H0z" style="fill:none"/>
        <g style="stroke-miterlimit:10;fill:none">
            <path d="M3 0a3 3 0 1 1-3 3 3 3 0 0 1 3-3z" style="stroke:none" transform="translate(9 9)"/>
            <path d="M3 .1C1.4.1.1 1.4.1 3 .1 4.6 1.4 5.9 3 5.9c1.6 0 2.9-1.3 2.9-2.9C5.9 1.4 4.6.1 3 .1M3 0a3 3 0 1 1 0 6 3 3 0 0 1 0-6z" style="fill:#cdcdcd;stroke:none" transform="translate(9 9)"/>
        </g>
        <g style="stroke-miterlimit:10;fill:none">
            <path d="M1 0h18a1 1 0 0 1 1 1v18a1 1 0 0 1-1 1H1a1 1 0 0 1-1-1V1a1 1 0 0 1 1-1z" style="stroke:none" transform="translate(2 2)"/>
            <path d="M1 .1C.504.1.1.504.1 1v18c0 .496.404.9.9.9h18c.496 0 .9-.404.9-.9V1c0-.496-.404-.9-.9-.9H1M1 0h18a1 1 0 0 1 1 1v18a1 1 0 0 1-1 1H1a1 1 0 0 1-1-1V1a1 1 0 0 1 1-1z" style="fill:#cdcdcd;stroke:none" transform="translate(2 2)"/>
        </g>
        <g style="stroke-miterlimit:10;fill:none">
            <path d="M1 0h16a1 1 0 0 1 1 1v20a1 1 0 0 1-1 1H1a1 1 0 0 1-1-1V1a1 1 0 0 1 1-1z" style="stroke:none" transform="translate(3 1)"/>
            <path d="M1 .1C.504.1.1.504.1 1v20c0 .496.404.9.9.9h16c.496 0 .9-.404.9-.9V1c0-.496-.404-.9-.9-.9H1M1 0h16a1 1 0 0 1 1 1v20a1 1 0 0 1-1 1H1a1 1 0 0 1-1-1V1a1 1 0 0 1 1-1z" style="fill:#cdcdcd;stroke:none" transform="translate(3 1)"/>
        </g>
        <g style="stroke-miterlimit:10;fill:none">
            <path d="M1 0h20a1 1 0 0 1 1 1v16a1 1 0 0 1-1 1H1a1 1 0 0 1-1-1V1a1 1 0 0 1 1-1z" style="stroke:none" transform="translate(1 3)"/>
            <path d="M1 .1C.504.1.1.504.1 1v16c0 .496.404.9.9.9h20c.496 0 .9-.404.9-.9V1c0-.496-.404-.9-.9-.9H1M1 0h20a1 1 0 0 1 1 1v16a1 1 0 0 1-1 1H1a1 1 0 0 1-1-1V1a1 1 0 0 1 1-1z" style="fill:#cdcdcd;stroke:none" transform="translate(1 3)"/>
        </g>
        <path d="m0 0 23 23" style="stroke:#cdcdcd;stroke-linecap:square;stroke-width:.1px;stroke-miterlimit:10;fill:none" transform="translate(.5 .5)"/>
        <path data-name="Line" d="M0 23 23 0" style="stroke:#cdcdcd;stroke-linecap:square;stroke-width:.1px;stroke-miterlimit:10;fill:none" transform="translate(.5 .5)"/>
        <g style="stroke-miterlimit:10;fill:none">
            <path d="M11 0A11 11 0 1 1 0 11 11 11 0 0 1 11 0z" style="stroke:none" transform="translate(1 1)"/>
            <path d="M11 .1a10.829 10.829 0 0 0-7.707 3.193A10.829 10.829 0 0 0 .1 11c0 2.911 1.134 5.649 3.193 7.707A10.829 10.829 0 0 0 11 21.9c2.911 0 5.649-1.134 7.707-3.193A10.829 10.829 0 0 0 21.9 11c0-2.911-1.134-5.649-3.193-7.707A10.829 10.829 0 0 0 11 .1m0-.1c6.075 0 11 4.925 11 11s-4.925 11-11 11S0 17.075 0 11 4.925 0 11 0z" style="fill:#cdcdcd;stroke:none" transform="translate(1 1)"/>
        </g>
    </g>
    <path data-name="사각형 151623" transform="translate(.001)" style="fill:#b30b00" d="M0 0h24v24H0z"/>
    <path d="M12.257 8.651a18.608 18.608 0 0 0-2.49.227 10.49 10.49 0 0 1-2.138-2.931 11.736 11.736 0 0 0 .684-3.52A2.671 2.671 0 0 0 7.771.453a1.405 1.405 0 0 0-1-.453c-.482 0-1.283.249-1.283 1.914a9.093 9.093 0 0 0 .835 3.375A34.622 34.622 0 0 1 4.129 10.5C.3 11.989 0 13.425 0 13.832 0 14.563.506 15 1.353 15c2.058 0 3.936-3.557 4.247-4.175a21.9 21.9 0 0 1 3.915-1.06 5.95 5.95 0 0 0 3.762 1.772c.515 0 1.723 0 1.723-1.278 0-1.187-1.477-1.608-2.742-1.608m-.1.839c1.112 0 1.405.378 1.405.579 0 .126-.046.535-.642.535A4.463 4.463 0 0 1 10.557 9.6a12.085 12.085 0 0 1 1.6-.106M6.709.813a.245.245 0 0 1 .223.112c.32.457.062 1.949-.252 3.117-.3-1-.53-2.538-.21-3.079a.258.258 0 0 1 .239-.15m-.54 8.94c.4-.837.854-2.057 1.1-2.747A13.278 13.278 0 0 0 8.8 9.066a30.563 30.563 0 0 0-2.635.687M.8 13.944a.228.228 0 0 1-.01-.183c.042-.172.362-1.023 2.678-2.09a11.011 11.011 0 0 1-1.42 1.88c-.4.386-.713.582-.928.582a.4.4 0 0 1-.32-.19" transform="translate(4.502 4.5)" style="fill:#fff"/>
</svg>
