<svg data-name="print(h16)" xmlns="http://www.w3.org/2000/svg" id="print" viewBox="0 0 16 16">
    <path d="M0 0h16v16H0z" style="fill:none" data-name="keyline/16px"/>
    <g style="stroke:#222;stroke-width:1.5px;fill:none">
        <path style="stroke:none" d="M0 0h12v9H0z" transform="rotate(-90 8.25 4.75)"/>
        <path style="fill:none" d="M.75.75h10.5v7.5H.75z" transform="rotate(-90 8.25 4.75)"/>
    </g>
    <g data-name="page" style="fill:#fff;stroke:#222;stroke-width:1.5px">
        <path style="stroke:none" d="M0 0h8v14H0z" transform="rotate(-90 6.5 5.5)"/>
        <path style="fill:none" d="M.75.75h6.5v12.5H.75z" transform="rotate(-90 6.5 5.5)"/>
    </g>
    <g data-name="page" style="fill:#fff;stroke:#222;stroke-width:1.5px">
        <path style="stroke:none" d="M0 0h7v9H0z" transform="rotate(-90 9.25 5.75)"/>
        <path style="fill:none" d="M.75.75h5.5v7.5H.75z" transform="rotate(-90 9.25 5.75)"/>
    </g>
    <g data-name="page" transform="rotate(-90 9.25 -1.75)" style="fill:#fff;stroke:#222;stroke-width:1.5px">
        <path style="stroke:none" d="M0 0h1.5v1.5H0z"/>
        <rect x=".75" y=".75" style="fill:none"/>
    </g>
</svg>
