<svg id="qrcode" data-name="QRcode(h16)" xmlns="http://www.w3.org/2000/svg" viewBox="0 0 16 16">
    <path d="M0 0h16v16H0z" style="fill:none" data-name="keyline/16px"/>
    <path data-name="사각형 151563" transform="rotate(-90 9.721 1.127)" style="fill:#222" d="M0 0h3.445v1.195H0z"/>
    <path data-name="사각형 151630" transform="rotate(-90 11.883 3.289)" style="fill:#222" d="M0 0h2.976v1.195H0z"/>
    <path data-name="사각형 151566" transform="rotate(180 4.895 4.298)" style="fill:#222" d="M0 0h4.579v1.195H0z"/>
    <path data-name="사각형 151631" transform="rotate(180 5.811 7.586)" style="fill:#222" d="M0 0h2.985v1.195H0z"/>
    <path data-name="사각형 151572" transform="rotate(180 1.41 4.298)" style="fill:#222" d="M0 0h2.391v1.195H0z"/>
    <path data-name="사각형 151632" transform="rotate(180 7.785 7.586)" style="fill:#222" d="M0 0h1.847v1.195H0z"/>
    <path data-name="사각형 151633" transform="rotate(180 7.785 6.021)" style="fill:#222" d="M0 0h4.123v1.195H0z"/>
    <path data-name="사각형 151634" transform="rotate(180 7.785 4.298)" style="fill:#222" d="M0 0h2.391v1.195H0z"/>
    <path data-name="사각형 151575" transform="rotate(180 4.318 2.804)" style="fill:#222" d="M0 0h1.195v4.781H0z"/>
    <g data-name="사각형 151629" style="stroke:#222;stroke-width:1.5px;fill:none">
        <path style="stroke:none" d="M0 0h4.781v4.781H0z" transform="rotate(-90 7.8 7.371)"/>
        <path style="fill:none" d="M.75.75h3.281v3.281H.75z" transform="rotate(-90 7.8 7.371)"/>
    </g>
    <g data-name="사각형 151569" style="stroke:#222;stroke-width:1.5px;fill:none">
        <path style="stroke:none" d="M0 0h4.781v4.781H0z" transform="rotate(-90 3.019 2.59)"/>
        <path style="fill:none" d="M.75.75h3.281v3.281H.75z" transform="rotate(-90 3.019 2.59)"/>
    </g>
    <g data-name="사각형 151628" style="stroke:#222;stroke-width:1.5px;fill:none">
        <path style="stroke:none" d="M0 0h4.781v4.781H0z" transform="rotate(-90 8.198 -2.59)"/>
        <path style="fill:none" d="M.75.75h3.281v3.281H.75z" transform="rotate(-90 8.198 -2.59)"/>
    </g>
</svg>
