<svg id="tool_24" data-name="tool(h24)" xmlns="http://www.w3.org/2000/svg" viewBox="0 0 24 24">
    <path d="M0 0h24v24H0z" style="fill:none" data-name="keyline/24px"/>
    <g data-name="빼기 171" style="fill:none">
        <path d="M-16031.5 68.625a2.957 2.957 0 0 1-2.116-.877 2.97 2.97 0 0 1-.885-2.121 2.97 2.97 0 0 1 .885-2.121l4.953-4.193a6.971 6.971 0 0 1-.575-2.793 6.953 6.953 0 0 1 2.047-4.949 6.946 6.946 0 0 1 4.947-2.049 7 7 0 0 1 3.568.975l-3.154 3.154.29 2.165 2.169.29 3.154-3.151a6.986 6.986 0 0 1 .975 3.565 7.01 7.01 0 0 1-7 7 6.91 6.91 0 0 1-2.99-.668l-4.141 4.893a2.983 2.983 0 0 1-2.127.88z" style="stroke:none" transform="translate(16037.242 -47.521)"/>
        <path d="M-16031.5 67.125c.387 0 .749-.143 1.027-.402l4.84-5.72 1.042.496a5.508 5.508 0 0 0 7.782-5.833l-2.026 2.024-4.04-.54-.54-4.035 2.026-2.027a5.539 5.539 0 0 0-.855-.066c-1.47 0-2.85.571-3.887 1.61a5.465 5.465 0 0 0-1.607 3.888c0 .767.151 1.506.45 2.195l.444 1.023-5.75 4.868a1.457 1.457 0 0 0-.407 1.02c0 .405.153.77.442 1.057l.008.009c.277.279.65.433 1.051.433m0 1.5a2.957 2.957 0 0 1-2.116-.878 2.97 2.97 0 0 1-.885-2.12c0-.801.314-1.554.885-2.121l4.953-4.193a6.97 6.97 0 0 1-.575-2.793c0-1.871.726-3.629 2.047-4.95a6.946 6.946 0 0 1 4.947-2.048 7 7 0 0 1 3.568.975l-3.154 3.154.29 2.165 2.169.29 3.154-3.151a6.986 6.986 0 0 1 .975 3.565 7.01 7.01 0 0 1-9.992 6.334l-4.141 4.893a2.983 2.983 0 0 1-2.125.878z" style="fill:#222;stroke:none" transform="translate(16037.242 -47.521)"/>
    </g>
</svg>
