<svg id="viewer" data-name="viewer(h16)" xmlns="http://www.w3.org/2000/svg" viewBox="0 0 16 16">
    <path d="M0 0h16v16H0z" style="fill:none" data-name="keyline/16px"/>
    <g data-name="패스 1" style="fill:none">
        <path d="M7 1c5.954 0 8 6 8 6s-2.1 6-8 6-8-6-8-6 2.046-6 8-6z" style="stroke:none" transform="translate(1 1)"/>
        <path d="M7 2.5c-1.975 0-3.665.805-5.023 2.393a9.472 9.472 0 0 0-1.35 2.102c.23.485.655 1.264 1.307 2.04C3.311 10.67 5.016 11.5 7 11.5c1.955 0 3.64-.806 5.007-2.397a9.66 9.66 0 0 0 1.366-2.11 9.478 9.478 0 0 0-1.29-2.03C10.714 3.329 9.004 2.5 7 2.5M7 1c5.954 0 8 6 8 6s-2.098 6-8 6-8-6-8-6 2.046-6 8-6z" style="fill:#222;stroke:none" transform="translate(1 1)"/>
    </g>
    <g data-name="패스 210245" style="fill:none">
        <path d="M3.6 0A3.6 3.6 0 1 1 0 3.6 3.6 3.6 0 0 1 3.6 0z" style="stroke:none" transform="translate(4.376 4.376)"/>
        <path d="M3.602 1.5C2.443 1.5 1.5 2.443 1.5 3.602c0 1.16.943 2.102 2.102 2.102 1.16 0 2.102-.943 2.102-2.102 0-1.159-.943-2.102-2.102-2.102m0-1.5a3.602 3.602 0 1 1 0 7.204 3.602 3.602 0 0 1 0-7.204z" style="fill:#222;stroke:none" transform="translate(4.376 4.376)"/>
    </g>
    <g data-name="패스 210246" style="fill:none">
        <path d="M1.02 0A1.02 1.02 0 1 1 0 1.02 1.02 1.02 0 0 1 1.02 0z" style="stroke:none" transform="translate(6.983 6.983)"/>
        <path d="M1.02 0a1.02 1.02 0 1 1 0 2.04 1.02 1.02 0 0 1 0-2.04z" style="fill:#222;stroke:none" transform="translate(6.983 6.983)"/>
    </g>
</svg>
