<svg id="edu_login3" data-name="login_partner_03(h36)" xmlns="http://www.w3.org/2000/svg" viewBox="0 0 36 36">
    <path data-name="36x36" style="fill:none" d="M0 0h36v36H0z"/>
    <g data-name="그룹 153034">
        <path data-name="사각형 151736" transform="translate(4 4)" style="fill:#3890f6" d="M0 0h20v28H0z"/>
        <path data-name="사각형 151713" transform="translate(8 8)" style="fill:#fff" d="M0 0h12v1.5H0z"/>
        <path data-name="사각형 151714" transform="translate(8 12)" style="fill:#fff" d="M0 0h8v1.5H0z"/>
    </g>
    <g data-name="그룹 153035" transform="translate(-65 11)">
        <circle data-name="타원 5247" cx="7" cy="7" r="7" transform="translate(84 7)" style="fill:#ff8f1f"/>
        <path data-name="패스 210457" d="M.336-7.4v.746H1.3l.746 3.23H3.1l.825-3.23h.864l.8 3.23h1.07L7.4-6.655h.933V-7.4h-.772l.628-2.749h-.972L6.628-7.4H5.539l-.687-2.75h-.884L3.261-7.4H2.182L1.6-10.15H.493l.628 2.75zm2.327 2.266-.324-1.521h.736l-.383 1.521zm3.446 0-.384-1.521h.736l-.323 1.521zm-1.757-3.2h.028l.236.933h-.5z" transform="translate(86.664 20.788)" style="stroke:transparent;fill:#fff"/>
    </g>
</svg>
