<svg xmlns="http://www.w3.org/2000/svg" xmlns:xlink="http://www.w3.org/1999/xlink" width="24" height="24" viewBox="0 0 24 24">
  <defs>
    <clipPath id="clip-path">
      <rect id="사각형_151474" data-name="사각형 151474" width="8" height="4" transform="translate(1791.5 41.5)" fill="#fff" stroke="#707070" stroke-width="1"/>
    </clipPath>
  </defs>
  <g id="ic_alert_24" transform="translate(-1783.5 -21.5)">
    <g id="zlert" transform="translate(1783.5 21.5)">
      <g id="keyline_24px" data-name="keyline/24px">
        <g id="bounding-box">
          <path id="shape" d="M0,0H24V24H0Z" fill="none"/>
        </g>
      </g>
      <g id="icon" transform="translate(-1783.5 -21.5)">
        <g id="그룹_147436" data-name="그룹 147436" transform="translate(0 -2)">
          <g id="마스크_그룹_113" data-name="마스크 그룹 113" clip-path="url(#clip-path)">
            <g id="타원_5193" data-name="타원 5193" transform="translate(1791.5 37.5)" fill="none" stroke="#222" stroke-width="1.5">
              <circle cx="4" cy="4" r="4" stroke="none"/>
              <circle cx="4" cy="4" r="3.25" fill="none"/>
            </g>
          </g>
        </g>
        <line id="선_2974" data-name="선 2974" x2="18" transform="translate(1786.5 37.8)" fill="none" stroke="#222" stroke-width="1.5"/>
        <line id="선_2975" data-name="선 2975" y1="2" transform="translate(1795.5 23.5)" fill="none" stroke="#222" stroke-width="1.5"/>
        <g id="사각형_151473" data-name="사각형 151473" transform="translate(1788.5 24.8)" fill="none" stroke="#222" stroke-width="1.5">
          <path d="M7,0H7a7,7,0,0,1,7,7v6.73a0,0,0,0,1,0,0H0a0,0,0,0,1,0,0V7A7,7,0,0,1,7,0Z" stroke="none"/>
          <path d="M7,.75H7A6.25,6.25,0,0,1,13.25,7v5.98a0,0,0,0,1,0,0H.75a0,0,0,0,1,0,0V7A6.25,6.25,0,0,1,7,.75Z" fill="none"/>
        </g>
      </g>
    </g>
  </g>
</svg>
