<svg id="setting" xmlns="http://www.w3.org/2000/svg" width="24" height="24" viewBox="0 0 24 24">
  <g id="keyline_24px" data-name="keyline/24px">
    <g id="bounding-box">
      <path id="shape" d="M0,0H24V24H0Z" fill="none"/>
    </g>
    <g id="keyline">
      <g id="center" transform="translate(7 7)" fill="none" stroke-miterlimit="10">
        <path d="M5,0A5,5,0,1,1,0,5,5,5,0,0,1,5,0Z" stroke="none"/>
        <path d="M 5 0.1000003814697266 C 2.298130035400391 0.1000003814697266 0.1000003814697266 2.298130035400391 0.1000003814697266 5 C 0.1000003814697266 7.701869964599609 2.298130035400391 9.899999618530273 5 9.899999618530273 C 7.701869964599609 9.899999618530273 9.899999618530273 7.701869964599609 9.899999618530273 5 C 9.899999618530273 2.298130035400391 7.701869964599609 0.1000003814697266 5 0.1000003814697266 M 5 0 C 7.761420249938965 0 10 2.238580226898193 10 5 C 10 7.761420249938965 7.761420249938965 10 5 10 C 2.238580226898193 10 0 7.761420249938965 0 5 C 0 2.238580226898193 2.238580226898193 0 5 0 Z" stroke="none" fill="#cdcdcd"/>
      </g>
      <g id="square" transform="translate(3 3)" fill="none" stroke-miterlimit="10">
        <path d="M1,0H17a1,1,0,0,1,1,1V17a1,1,0,0,1-1,1H1a1,1,0,0,1-1-1V1A1,1,0,0,1,1,0Z" stroke="none"/>
        <path d="M 1 0.1000003814697266 C 0.5037403106689453 0.1000003814697266 0.1000003814697266 0.5037403106689453 0.1000003814697266 1 L 0.1000003814697266 17 C 0.1000003814697266 17.49625968933105 0.5037403106689453 17.89999961853027 1 17.89999961853027 L 17 17.89999961853027 C 17.49625968933105 17.89999961853027 17.89999961853027 17.49625968933105 17.89999961853027 17 L 17.89999961853027 1 C 17.89999961853027 0.5037403106689453 17.49625968933105 0.1000003814697266 17 0.1000003814697266 L 1 0.1000003814697266 M 1 0 L 17 0 C 17.55228042602539 0 18 0.4477195739746094 18 1 L 18 17 C 18 17.55228042602539 17.55228042602539 18 17 18 L 1 18 C 0.4477195739746094 18 0 17.55228042602539 0 17 L 0 1 C 0 0.4477195739746094 0.4477195739746094 0 1 0 Z" stroke="none" fill="#cdcdcd"/>
      </g>
      <g id="vertical-rectangle" transform="translate(4 2)" fill="none" stroke-miterlimit="10">
        <path d="M1,0H15a1,1,0,0,1,1,1V19a1,1,0,0,1-1,1H1a1,1,0,0,1-1-1V1A1,1,0,0,1,1,0Z" stroke="none"/>
        <path d="M 1 0.1000003814697266 C 0.5037403106689453 0.1000003814697266 0.1000003814697266 0.5037403106689453 0.1000003814697266 1 L 0.1000003814697266 19 C 0.1000003814697266 19.49625968933105 0.5037403106689453 19.89999961853027 1 19.89999961853027 L 15 19.89999961853027 C 15.49625968933105 19.89999961853027 15.89999961853027 19.49625968933105 15.89999961853027 19 L 15.89999961853027 1 C 15.89999961853027 0.5037403106689453 15.49625968933105 0.1000003814697266 15 0.1000003814697266 L 1 0.1000003814697266 M 1 0 L 15 0 C 15.55228042602539 0 16 0.4477195739746094 16 1 L 16 19 C 16 19.55228042602539 15.55228042602539 20 15 20 L 1 20 C 0.4477100372314453 20 0 19.55228042602539 0 19 L 0 1 C 0 0.4477195739746094 0.4477100372314453 0 1 0 Z" stroke="none" fill="#cdcdcd"/>
      </g>
      <g id="horizontal-rectangle" transform="translate(2 4)" fill="none" stroke-miterlimit="10">
        <path d="M1,0H19a1,1,0,0,1,1,1V15a1,1,0,0,1-1,1H1a1,1,0,0,1-1-1V1A1,1,0,0,1,1,0Z" stroke="none"/>
        <path d="M 1 0.1000003814697266 C 0.5037403106689453 0.1000003814697266 0.1000003814697266 0.5037403106689453 0.1000003814697266 1 L 0.1000003814697266 15 C 0.1000003814697266 15.49625968933105 0.5037403106689453 15.89999961853027 1 15.89999961853027 L 19 15.89999961853027 C 19.49625968933105 15.89999961853027 19.89999961853027 15.49625968933105 19.89999961853027 15 L 19.89999961853027 1 C 19.89999961853027 0.5037403106689453 19.49625968933105 0.1000003814697266 19 0.1000003814697266 L 1 0.1000003814697266 M 1 0 L 19 0 C 19.55228042602539 0 20 0.4477100372314453 20 1 L 20 15 C 20 15.55228042602539 19.55228042602539 16 19 16 L 1 16 C 0.4477195739746094 16 0 15.55228042602539 0 15 L 0 1 C 0 0.4477100372314453 0.4477195739746094 0 1 0 Z" stroke="none" fill="#cdcdcd"/>
      </g>
      <path id="Line" d="M.5.5l23,23" fill="none" stroke="#cdcdcd" stroke-linecap="square" stroke-miterlimit="10" stroke-width="0.1"/>
      <path id="Line-2" data-name="Line" d="M.5,23.5l23-23" fill="none" stroke="#cdcdcd" stroke-linecap="square" stroke-miterlimit="10" stroke-width="0.1"/>
      <g id="oval" transform="translate(2 2)" fill="none" stroke-miterlimit="10">
        <path d="M10,0A10,10,0,1,1,0,10,10,10,0,0,1,10,0Z" stroke="none"/>
        <path d="M 10 0.1000003814697266 C 4.541119575500488 0.1000003814697266 0.1000003814697266 4.541119575500488 0.1000003814697266 10 C 0.1000003814697266 15.4588794708252 4.541119575500488 19.89999961853027 10 19.89999961853027 C 15.4588794708252 19.89999961853027 19.89999961853027 15.4588794708252 19.89999961853027 10 C 19.89999961853027 4.541119575500488 15.4588794708252 0.1000003814697266 10 0.1000003814697266 M 10 0 C 15.52285003662109 0 20 4.477149963378906 20 10 C 20 15.52285003662109 15.52285003662109 20 10 20 C 4.477149963378906 20 0 15.52285003662109 0 10 C 0 4.477149963378906 4.477149963378906 0 10 0 Z" stroke="none" fill="#cdcdcd"/>
      </g>
    </g>
  </g>
  <g id="icon" transform="translate(-17 -751)">
    <g id="합치기_399" data-name="합치기 399" transform="translate(19 753)" fill="none" stroke-linejoin="round">
      <path d="M6.818,20V17.681l-1.639,1.64-4.5-4.5,1.639-1.639H0V6.819H2.319L.679,5.179l4.5-4.5,1.639,1.64V0h6.364V2.319l1.64-1.64,4.5,4.5-1.639,1.64H20v6.364H17.682l1.639,1.639-4.5,4.5-1.64-1.64V20Z" stroke="none"/>
      <path d="M 11.68187046051025 18.5 L 11.68187046051025 17.68135070800781 C 11.68187046051025 17.07467079162598 12.04732036590576 16.52773094177246 12.60781002044678 16.2955493927002 C 13.16830062866211 16.06336975097656 13.8134593963623 16.1916675567627 14.24246978759766 16.62063026428223 L 14.8214750289917 17.19957160949707 L 17.1994571685791 14.8211555480957 L 16.62118911743164 14.24293041229248 C 16.19216918945312 13.81394004821777 16.06381988525391 13.16876029968262 16.29598045349121 12.608229637146 C 16.52815055847168 12.04771041870117 17.07510948181152 11.68222999572754 17.68181037902832 11.68222999572754 L 18.5 11.68222999572754 L 18.5 8.318599700927734 L 17.68124008178711 8.318599700927734 C 17.07456016540527 8.318599700927734 16.52761077880859 7.953149795532227 16.29542922973633 7.392650127410889 C 16.0632495880127 6.832159996032715 16.19156074523926 6.186989784240723 16.62052917480469 5.757989883422852 L 17.19954109191895 5.178928852081299 L 14.82148838043213 2.800441265106201 L 14.24248027801514 3.379400014877319 C 13.81347942352295 3.808369874954224 13.16831302642822 3.936679840087891 12.60781955718994 3.704499959945679 C 12.04732036590576 3.472320079803467 11.68187046051025 2.92536997795105 11.68187046051025 2.318690061569214 L 11.68187046051025 1.5 L 8.317839622497559 1.5 L 8.317839622497559 2.318690061569214 C 8.317839622497559 2.925400018692017 7.952360153198242 3.472359895706177 7.391829967498779 3.704519987106323 C 6.831310749053955 3.936689853668213 6.186119556427002 3.808330297470093 5.757130146026611 3.379300117492676 L 5.178385257720947 2.800502061843872 L 2.800301551818848 5.178871154785156 L 3.379369974136353 5.757890224456787 C 3.80839991569519 6.186880111694336 3.936759948730469 6.832069873809814 3.704590082168579 7.392600059509277 C 3.472429990768433 7.953120231628418 2.925470113754272 8.318599700927734 2.318759918212891 8.318599700927734 L 1.5 8.318599700927734 L 1.5 11.68222999572754 L 2.317899942398071 11.68222999572754 C 2.924599885940552 11.68222999572754 3.471560001373291 12.04769992828369 3.70373010635376 12.608229637146 C 3.935889959335327 13.16874980926514 3.807539939880371 13.81394004821777 3.378520011901855 14.24293041229248 L 2.800292015075684 14.82111930847168 L 5.178398132324219 17.19951057434082 L 5.757140159606934 16.62072944641113 C 6.186129570007324 16.19170761108398 6.831319808959961 16.06335830688477 7.391839981079102 16.2955207824707 C 7.952370166778564 16.52769088745117 8.317839622497559 17.07464981079102 8.317839622497559 17.68135070800781 L 8.317839622497559 18.5 L 11.68187046051025 18.5 M 13.18187046051025 20 L 6.817840099334717 20 L 6.817840099334717 17.68135070800781 L 5.178369998931885 19.32093048095703 L 0.6790000200271606 14.82102012634277 L 2.317899942398071 13.18222999572754 L 0 13.18222999572754 L 0 6.818600177764893 L 2.318759918212891 6.818600177764893 L 0.6790000200271606 5.178979873657227 L 5.178369998931885 0.679069995880127 L 6.817840099334717 2.318690061569214 L 6.817840099334717 0 L 13.18187046051025 0 L 13.18187046051025 2.318690061569214 L 14.82162952423096 0.679069995880127 L 19.32072067260742 5.178979873657227 L 17.68124008178711 6.818600177764893 L 20 6.818600177764893 L 20 13.18222999572754 L 17.68181037902832 13.18222999572754 L 19.32072067260742 14.82102012634277 L 14.82162952423096 19.32093048095703 L 13.18187046051025 17.68135070800781 L 13.18187046051025 20 Z" stroke="none" fill="#222"/>
    </g>
    <g id="타원_5189" data-name="타원 5189" transform="translate(24.999 759)" fill="none" stroke="#222" stroke-width="1.5">
      <circle cx="4" cy="4" r="4" stroke="none"/>
      <circle cx="4" cy="4" r="3.25" fill="none"/>
    </g>
  </g>
</svg>
