<svg id="tool" xmlns="http://www.w3.org/2000/svg" width="24" height="24" viewBox="0 0 24 24">
  <g id="keyline_24px" data-name="keyline/24px">
    <g id="bounding-box">
      <path id="shape" d="M0,0H24V24H0Z" fill="none"/>
    </g>
  </g>
  <g id="icon" transform="translate(-1797.5 -368.521)">
    <g id="빼기_171" data-name="빼기 171" transform="translate(17834.742 321)" fill="none">
      <path d="M-16031.5,68.625a2.957,2.957,0,0,1-2.116-.877,2.97,2.97,0,0,1-.885-2.121,2.97,2.97,0,0,1,.885-2.121l4.953-4.193a6.971,6.971,0,0,1-.575-2.793,6.953,6.953,0,0,1,2.047-4.949,6.946,6.946,0,0,1,4.947-2.049,7,7,0,0,1,3.568.975l-3.154,3.154.29,2.165,2.169.29,3.154-3.151a6.986,6.986,0,0,1,.975,3.565,7.01,7.01,0,0,1-7,7,6.91,6.91,0,0,1-2.99-.668l-4.141,4.893A2.983,2.983,0,0,1-16031.5,68.625Z" stroke="none"/>
      <path d="M -16031.5 67.12474060058594 C -16031.11328125 67.12474060058594 -16030.7509765625 66.98247528076172 -16030.47265625 66.72299194335938 L -16025.6337890625 61.00353240966797 L -16024.5908203125 61.49927139282227 C -16023.8603515625 61.84616088867188 -16023.0712890625 62.02205276489258 -16022.244140625 62.02205276489258 C -16019.2099609375 62.02205276489258 -16016.7421875 59.55381011962891 -16016.7421875 56.51993179321289 C -16016.7421875 56.23265075683594 -16016.7646484375 55.94706726074219 -16016.80859375 55.66585922241211 L -16018.8349609375 57.69034194946289 L -16022.875 57.15075302124023 L -16023.4150390625 53.114501953125 L -16021.388671875 51.08827590942383 C -16021.6708984375 51.04422378540039 -16021.9560546875 51.02184295654297 -16022.244140625 51.02184295654297 C -16023.7138671875 51.02184295654297 -16025.09375 51.59316253662109 -16026.130859375 52.63120269775391 C -16027.1669921875 53.66815185546875 -16027.73828125 55.04920196533203 -16027.73828125 56.51993179321289 C -16027.73828125 57.28731155395508 -16027.5869140625 58.02595138549805 -16027.287109375 58.71531295776367 L -16026.84375 59.73751068115234 L -16032.59375 64.60594177246094 C -16032.8603515625 64.88747406005859 -16033.0009765625 65.23933410644531 -16033.0009765625 65.62669372558594 C -16033.0009765625 66.03070831298828 -16032.84765625 66.39609527587891 -16032.55859375 66.683349609375 L -16032.55078125 66.69168090820312 C -16032.2744140625 66.97093963623047 -16031.900390625 67.12474060058594 -16031.5 67.12474060058594 M -16031.5 68.62474060058594 C -16032.3037109375 68.62474060058594 -16033.0556640625 68.31317901611328 -16033.6162109375 67.74745941162109 C -16034.1865234375 67.18085479736328 -16034.5009765625 66.42768096923828 -16034.5009765625 65.62669372558594 C -16034.5009765625 64.82572174072266 -16034.1865234375 64.07256317138672 -16033.6162109375 63.50595092773438 L -16028.6630859375 59.3127326965332 C -16029.044921875 58.43333053588867 -16029.23828125 57.49331283569336 -16029.23828125 56.51993179321289 C -16029.23828125 54.64895248413086 -16028.51171875 52.89127349853516 -16027.19140625 51.57066345214844 C -16025.8720703125 50.24946212768555 -16024.1142578125 49.52184295654297 -16022.244140625 49.52184295654297 C -16020.9853515625 49.52184295654297 -16019.751953125 49.85901260375977 -16018.67578125 50.49689102172852 L -16021.830078125 53.65068054199219 L -16021.5400390625 55.81570053100586 L -16019.37109375 56.10544204711914 L -16016.216796875 52.95483016967773 C -16015.578125 54.03082275390625 -16015.2421875 55.26354217529297 -16015.2421875 56.51993179321289 C -16015.2421875 60.38091278076172 -16018.3828125 63.52205276489258 -16022.244140625 63.52205276489258 C -16023.2958984375 63.52205276489258 -16024.3017578125 63.29730224609375 -16025.234375 62.85403060913086 L -16029.375 67.74745941162109 C -16029.9404296875 68.31320190429688 -16030.6953125 68.62474060058594 -16031.5 68.62474060058594 Z" stroke="none" fill="#222"/>
    </g>
  </g>
</svg>
