<svg xmlns="http://www.w3.org/2000/svg" width="85.257" height="34" viewBox="0 0 85.257 34">
    <path data-name="패스 210239" d="M77.556 24.697a2.78 2.78 0 1 0-3.1-2.762 2.932 2.932 0 0 0 3.1 2.762zm0-4.223a1.481 1.481 0 1 1-1.277 1.467 1.391 1.391 0 0 1 1.277-1.467zm2.71 8.141h2.98v1.116h1.864v-9.487a.936.936 0 0 0-.932-.932h-.932v8.014h-2.98v1.289zm-11.7.552h.926a.931.931 0 0 0 .926-.932v-7.631a.42.42 0 0 0-.449-.437h-9.332v1.294h7.928zm9.625 2.347v-2.439h-1.864v3.285a.44.44 0 0 0 .472.454h7.807a.649.649 0 0 0 .65-.65v-.66h-7.065zm-10.92-5.4a.916.916 0 0 0-.921-.921h-.926v5.711h-1.128v-4.787a.916.916 0 0 0-.921-.921h-.919v5.708h-2.95v1.3H70.84a.652.652 0 0 0 .65-.644v-.644h-4.217zm10.914 2.307v-1.939h4.177v-1.294H73.22v1.294h3.084v1.939z"/>
    <path data-name="패스 210240" d="m16.581 27.585-2.388-8.187h-2.278l-2.37 8.182-1.91-8.182H4.902l3.141 13.423h2.589s2.244-7.77 2.411-8.33c.161.56 2.422 8.33 2.422 8.33h2.629l3.135-13.423h-2.733s-1.772 7.565-1.915 8.187zm31.878-8.187v8.507l-5.736-8.507h-2.606v13.423h2.767v-8.484l5.77 8.484h2.572V19.398zM16.264 5.844c-.138-.206-3.2-4.659-3.2-4.659H7.581s-4.5 4.539-4.792 4.83v-4.83h-2.79v13.42h2.79v-5.4l5.327 5.4h3.32s-6.432-6.914-6.547-7.04c.092-.1 4.067-4.265 5.54-5.812 1.116 1.764 4.418 7.011 4.441 7.051v5.8h2.79V8.805l4.8-7.622h-3l-3.196 4.661z"/>
    <path data-name="패스 210241" d="M147.555 85.22a7.944 7.944 0 0 0-2.612 15.447 3.1 3.1 0 0 1 5.224 0 7.944 7.944 0 0 0-2.612-15.447zm0 12.749a4.8 4.8 0 1 1 4.8-4.8 4.812 4.812 0 0 1-4.8 4.8z" transform="translate(-117.547 -85.22)" style="fill:#ee7800"/>
    <path data-name="패스 210242" d="M150.173 117.89a3.109 3.109 0 0 1-5.23 0 7.948 7.948 0 1 0 5.23 0zm-2.618 12.31a4.8 4.8 0 1 1 4.8-4.8 4.812 4.812 0 0 1-4.8 4.8z" transform="translate(-117.547 -99.337)" style="fill:#ee7800"/>
</svg>
