<svg xmlns="http://www.w3.org/2000/svg" width="124" height="34" viewBox="0 0 124 34">
    <defs>
        <clipPath id="cr0yt9o2oa">
            <path style="fill:none" d="M0 0h124v34H0z"/>
        </clipPath>
    </defs>
    <g data-name="logo" style="isolation:isolate;clip-path:url(#cr0yt9o2oa)">
        <path data-name="패스 210265" d="M13.439 5.324a5.324 5.324 0 0 0-10.648 0V28.9a4.825 4.825 0 0 0 .025.5 5.322 5.322 0 0 0 10.6 0 4.825 4.825 0 0 0 .025-.5V5.321" transform="translate(-1.218)" style="fill:#2b63ff"/>
        <path data-name="패스 210266" d="M9.182 31.925s11.1 1.054 18.944-6.362a23.676 23.676 0 0 0 7.482-16.025l-10.656-.18s.1 5.614-3.849 8.759c-3.163 2.523-7.288 3.37-11.606 3.165z" transform="translate(-4.007 -4.084)" style="fill:#f70"/>
        <path data-name="패스 210267" d="M2.79 13.824a27.9 27.9 0 0 1 22.01 5.891 21.684 21.684 0 0 1 8.01 15.144l-10.5 1.164s-1.159-5.761-5.226-8.927S8.775 22.67 2.79 23.069z" transform="translate(-1.218 -5.875)" style="fill:#2b63ff"/>
        <path data-name="패스 210268" d="M47.811 47.147a5.324 5.324 0 1 1-5.324-5.324 5.325 5.325 0 0 1 5.324 5.324" transform="translate(-16.219 -18.252)" style="fill:#7b9eff"/>
        <path data-name="패스 210269" d="M47.811 5.338A5.324 5.324 0 1 1 42.487.014a5.325 5.325 0 0 1 5.324 5.324" transform="translate(-16.219 -.006)" style="fill:#ffb359"/>
        <path data-name="패스 210270" d="M10.648 35.833a5.324 5.324 0 1 1-5.324-5.324 5.325 5.325 0 0 1 5.324 5.324" transform="translate(0 -13.315)" style="fill:#ffb359"/>
        <g>
            <path data-name="패스 210279" d="M77.675 45.862a.412.412 0 0 1-.44.378h-5.459a.412.412 0 0 1-.44-.378v-4.251a.412.412 0 0 1 .44-.378h.44a.412.412 0 0 1 .44.378v.968h1.182v-.968a.412.412 0 0 1 .44-.378h.466a.412.412 0 0 1 .44.378v.968h1.17v-.968a.412.412 0 0 1 .44-.378h.44a.412.412 0 0 1 .44.378zm-5.019-.755h1.182v-1.383h-1.182zm.68 2.994a.412.412 0 0 1-.44-.377V47.4a.412.412 0 0 1 .44-.378h6.44a.412.412 0 0 1 .44.378v2.264a.411.411 0 0 1-.44.377H74.33v.919h5.71a.411.411 0 0 1 .44.377v.352a.411.411 0 0 1-.44.378h-6.654a.412.412 0 0 1-.441-.378v-2.3a.412.412 0 0 1 .441-.378h5.459V48.1zm1.849-2.994h1.17v-1.383h-1.17zM78.9 41.46a.411.411 0 0 1 .44-.377h.5a.411.411 0 0 1 .44.377v1.647h1.082a.412.412 0 0 1 .44.378v.465a.411.411 0 0 1-.44.378h-1.083v1.787a.411.411 0 0 1-.44.377h-.5a.411.411 0 0 1-.44-.377z" transform="translate(-31.132 -17.929)" style="fill:#575a63"/>
            <path data-name="패스 210280" d="M77.675 45.862a.412.412 0 0 1-.44.378h-5.459a.412.412 0 0 1-.44-.378v-4.251a.412.412 0 0 1 .44-.378h.44a.412.412 0 0 1 .44.378v.968h1.182v-.968a.412.412 0 0 1 .44-.378h.466a.412.412 0 0 1 .44.378v.968h1.17v-.968a.412.412 0 0 1 .44-.378h.44a.412.412 0 0 1 .44.378zm-5.019-.755h1.182v-1.383h-1.182zm.68 2.994a.412.412 0 0 1-.44-.377V47.4a.412.412 0 0 1 .44-.378h6.44a.412.412 0 0 1 .44.378v2.264a.411.411 0 0 1-.44.377H74.33v.919h5.71a.411.411 0 0 1 .44.377v.352a.411.411 0 0 1-.44.378h-6.654a.412.412 0 0 1-.441-.378v-2.3a.412.412 0 0 1 .441-.378h5.459V48.1zm1.849-2.994h1.17v-1.383h-1.17zM78.9 41.46a.411.411 0 0 1 .44-.377h.5a.411.411 0 0 1 .44.377v1.647h1.082a.412.412 0 0 1 .44.378v.465a.411.411 0 0 1-.44.378h-1.083v1.787a.411.411 0 0 1-.44.377h-.5a.411.411 0 0 1-.44-.377z" transform="translate(-31.132 -17.929)" style="stroke:#575a63;stroke-miterlimit:10;stroke-width:.25px;fill:none"/>
            <path data-name="패스 210281" d="M92.815 42.384a.411.411 0 0 1-.441-.377v-.352a.411.411 0 0 1 .441-.377h4.44a.406.406 0 0 1 .441.389c-.1 3.17-2.214 5.069-4.843 5.849a.548.548 0 0 1-.49-.138l-.151-.151a.35.35 0 0 1 .176-.629 5.146 5.146 0 0 0 3.761-4.214zm1.836 5.874a.411.411 0 0 1 .441.378v2.327h5.6a.411.411 0 0 1 .44.377v.36a.411.411 0 0 1-.44.378h-6.569a.411.411 0 0 1-.44-.378v-3.064a.411.411 0 0 1 .44-.378zm5.773-7.132a.412.412 0 0 1 .44.378v2.062h1.12a.411.411 0 0 1 .44.377v.457a.411.411 0 0 1-.44.377h-1.12v3.976a.411.411 0 0 1-.44.377h-.49a.411.411 0 0 1-.44-.377V41.5a.412.412 0 0 1 .44-.378z" transform="translate(-40.182 -17.948)" style="fill:#575a63"/>
            <path data-name="패스 210282" d="M92.815 42.384a.411.411 0 0 1-.441-.377v-.352a.411.411 0 0 1 .441-.377h4.44a.406.406 0 0 1 .441.389c-.1 3.17-2.214 5.069-4.843 5.849a.548.548 0 0 1-.49-.138l-.151-.151a.35.35 0 0 1 .176-.629 5.146 5.146 0 0 0 3.761-4.214zm1.836 5.874a.411.411 0 0 1 .441.378v2.327h5.6a.411.411 0 0 1 .44.377v.36a.411.411 0 0 1-.44.378h-6.569a.411.411 0 0 1-.44-.378v-3.064a.411.411 0 0 1 .44-.378zm5.773-7.132a.412.412 0 0 1 .44.378v2.062h1.12a.411.411 0 0 1 .44.377v.457a.411.411 0 0 1-.44.377h-1.12v3.976a.411.411 0 0 1-.44.377h-.49a.411.411 0 0 1-.44-.377V41.5a.412.412 0 0 1 .44-.378z" transform="translate(-40.182 -17.948)" style="stroke:#575a63;stroke-miterlimit:10;stroke-width:.25px;fill:none"/>
            <path data-name="패스 210283" d="M116.929 42.4v3.886c.251-.012.5-.025.755-.05a.409.409 0 0 1 .478.377v.287a.415.415 0 0 1-.365.378 8.844 8.844 0 0 1-1.472.113h-3.233a.412.412 0 0 1-.44-.378v-.352a.412.412 0 0 1 .44-.378h.415V42.4h-.352a.411.411 0 0 1-.44-.377v-.378a.411.411 0 0 1 .44-.377h4.063a.411.411 0 0 1 .44.377v.378a.411.411 0 0 1-.44.377zm-1.283 5.849a.411.411 0 0 1 .44.377v2.327h5.786a.411.411 0 0 1 .441.377v.365a.411.411 0 0 1-.441.378h-6.742a.411.411 0 0 1-.44-.378v-3.069a.411.411 0 0 1 .44-.377zm.05-5.849h-.956v3.886h.956zm2.956 2.39h-.717a.411.411 0 0 1-.441-.377v-.327a.411.411 0 0 1 .441-.377h.717v-2.227a.412.412 0 0 1 .44-.378h.378a.412.412 0 0 1 .44.378v6.842a.411.411 0 0 1-.44.377h-.378a.411.411 0 0 1-.44-.377zm2.642 4.05a.412.412 0 0 1-.44-.377v-6.981a.412.412 0 0 1 .44-.378h.365a.412.412 0 0 1 .44.378v6.981a.412.412 0 0 1-.44.377z" transform="translate(-49.163 -17.938)" style="fill:#575a63"/>
            <path data-name="패스 210284" d="M116.929 42.4v3.886c.251-.012.5-.025.755-.05a.409.409 0 0 1 .478.377v.287a.415.415 0 0 1-.365.378 8.844 8.844 0 0 1-1.472.113h-3.233a.412.412 0 0 1-.44-.378v-.352a.412.412 0 0 1 .44-.378h.415V42.4h-.352a.411.411 0 0 1-.44-.377v-.378a.411.411 0 0 1 .44-.377h4.063a.411.411 0 0 1 .44.377v.378a.411.411 0 0 1-.44.377zm-1.283 5.849a.411.411 0 0 1 .44.377v2.327h5.786a.411.411 0 0 1 .441.377v.365a.411.411 0 0 1-.441.378h-6.742a.411.411 0 0 1-.44-.378v-3.069a.411.411 0 0 1 .44-.377zm.05-5.849h-.956v3.886h.956zm2.956 2.39h-.717a.411.411 0 0 1-.441-.377v-.327a.411.411 0 0 1 .441-.377h.717v-2.227a.412.412 0 0 1 .44-.378h.378a.412.412 0 0 1 .44.378v6.842a.411.411 0 0 1-.44.377h-.378a.411.411 0 0 1-.44-.377zm2.642 4.05a.412.412 0 0 1-.44-.377v-6.981a.412.412 0 0 1 .44-.378h.365a.412.412 0 0 1 .44.378v6.981a.412.412 0 0 1-.44.377z" transform="translate(-49.163 -17.938)" style="stroke:#575a63;stroke-miterlimit:10;stroke-width:.25px;fill:none"/>
        </g>
        <g>
            <path data-name="패스 210271" d="M157 2.126A2.126 2.126 0 1 1 154.877 0 2.126 2.126 0 0 1 157 2.126" transform="translate(-66.663)" style="fill:#2b63ff"/>
            <path data-name="패스 210272" d="M177.461 13.013a5.849 5.849 0 0 0-1.3-2.07 5.7 5.7 0 0 0-2.018-1.315 7.675 7.675 0 0 0-5.209 0 5.787 5.787 0 0 0-2.018 1.3 5.7 5.7 0 0 0-1.3 2.057 7.682 7.682 0 0 0-.456 2.722 7.758 7.758 0 0 0 .456 2.747 5.787 5.787 0 0 0 1.289 2.058 5.64 5.64 0 0 0 2.005 1.3 7.815 7.815 0 0 0 5.261 0 5.558 5.558 0 0 0 2.005-1.315 5.939 5.939 0 0 0 1.289-2.071 7.677 7.677 0 0 0 .456-2.721 7.6 7.6 0 0 0-.456-2.7m-5.924 5.92a3.211 3.211 0 1 1 3.211-3.211 3.211 3.211 0 0 1-3.211 3.211" transform="translate(-72.076 -4.003)" style="fill:#2b2b2b"/>
            <path data-name="패스 210273" d="M77.711 15.936a6.477 6.477 0 0 0-3.125-1.445l-1.276-.313a2.638 2.638 0 0 1-1.133-.468.927.927 0 0 1-.326-.729 1.016 1.016 0 0 1 .573-.925 3.24 3.24 0 0 1 1.588-.325 5.708 5.708 0 0 1 1 .091q.508.091.964.221c.08.023.158.047.235.072a.1.1 0 0 0 .026 0 1.2 1.2 0 0 0 1.094-2.125c-.015-.011-.025-.025-.041-.036a3.426 3.426 0 0 0-.4-.22 5.624 5.624 0 0 0-1.38-.416 9.794 9.794 0 0 0-1.731-.143 6.055 6.055 0 0 0-3.8 1.054 3.32 3.32 0 0 0-1.354 2.747 3.127 3.127 0 0 0 .924 2.37 6.028 6.028 0 0 0 2.851 1.333l1.458.339q1.563.338 1.563 1.406a1.1 1.1 0 0 1-.547.977 3.011 3.011 0 0 1-1.614.352 6.7 6.7 0 0 1-2.2-.365 6.128 6.128 0 0 1-.73-.285h-.008a.3.3 0 0 0-.062-.02 1.194 1.194 0 0 0-1.35 1.853.235.235 0 0 0 .017.03c.02.024.044.046.065.07l.033.035a2.875 2.875 0 0 0 .892.624 6.078 6.078 0 0 0 1.51.456 11.09 11.09 0 0 0 1.94.156 6.471 6.471 0 0 0 3.959-1.029 3.382 3.382 0 0 0 1.354-2.852 3.341 3.341 0 0 0-.963-2.487" transform="translate(-29.949 -4.006)" style="fill:#2b2b2b"/>
            <path data-name="패스 210274" d="M118.584 10.318a6.849 6.849 0 0 0-4.075-1.093 12.173 12.173 0 0 0-1.953.156 6.284 6.284 0 0 0-1.547.4 1.011 1.011 0 0 0-.3.2 1.17 1.17 0 0 0 .778 2.048 1.081 1.081 0 0 0 .114-.012.387.387 0 0 0 .079-.006h.017l.046-.008c.14-.027.294-.06.4-.082a9.728 9.728 0 0 1 2.033-.17 3.672 3.672 0 0 1 2.018.469 1.619 1.619 0 0 1 .716 1.458v.247a.554.554 0 0 1-.553.554h-2.091c-.219 0-.721.015-1.027.048a4.705 4.705 0 0 0-2.707 1.1 3.442 3.442 0 0 0-1.107 2.669 3.378 3.378 0 0 0 1.5 3.008 5.933 5.933 0 0 0 3.7 1.013h.117-.017s1.345.026 2.912-.026H117.718a2.468 2.468 0 0 0 2.4-2.453v.181-6.012c0-1.83-.508-2.959-1.523-3.689m-1.695 7.454v1.8s-.035.251-.555.251h-1.737a4.906 4.906 0 0 1-.8-.053 2.648 2.648 0 0 1-.84-.255 1.406 1.406 0 0 1-.734-1.28 1.348 1.348 0 0 1 .484-1.14 1.9 1.9 0 0 1 1.062-.4c.319-.036.89-.046 1.342-.046h1.219a.554.554 0 0 1 .554.554zm3.2 2v.038-.038" transform="translate(-47.752 -4.026)" style="fill:#2b2b2b"/>
            <path data-name="패스 210275" d="M98.291 17.211c-.036 0-.069.008-.1.011a.181.181 0 0 0-.046 0 6.987 6.987 0 0 1-1 .067 2.4 2.4 0 0 1-1.419-.365 1.373 1.373 0 0 1-.508-1.2V10.6a.555.555 0 0 1 .555-.555h2.524a1.288 1.288 0 1 0 0-2.576h-2.531a.554.554 0 0 1-.555-.554V5.4a1.628 1.628 0 0 0-1.628-1.628c-.043 0-.085.01-.127.013h-.031A1.623 1.623 0 0 0 91.956 5.4v10.534a3.648 3.648 0 0 0 1.185 3.06 5.147 5.147 0 0 0 3.242.924h.032a12.169 12.169 0 0 0 2.115-.154l.032-.006h.023a.134.134 0 0 0 .047-.018 1.285 1.285 0 0 0-.341-2.525" transform="translate(-40.131 -1.646)" style="fill:#2b2b2b"/>
            <path data-name="패스 210276" d="M141.279 17.21c-.036 0-.069.008-.1.011a.211.211 0 0 0-.046 0 6.987 6.987 0 0 1-1 .067 2.4 2.4 0 0 1-1.419-.365 1.372 1.372 0 0 1-.508-1.2V10.6a.555.555 0 0 1 .555-.555h2.524a1.288 1.288 0 1 0 0-2.576h-2.522a.554.554 0 0 1-.555-.554V5.4a1.628 1.628 0 0 0-1.628-1.628 1.865 1.865 0 0 0-.2.014 1.628 1.628 0 0 0-1.436 1.614v10.533a3.648 3.648 0 0 0 1.185 3.06 5.143 5.143 0 0 0 3.242.924h.032a12.172 12.172 0 0 0 2.115-.154l.032-.006h.023a.134.134 0 0 0 .047-.018 1.285 1.285 0 0 0-.341-2.525" transform="translate(-58.892 -1.646)" style="fill:#2b2b2b"/>
            <path data-name="패스 210277" d="M155.253 9.21a1.64 1.64 0 0 0-1.641 1.641v9.792a1.641 1.641 0 1 0 3.281 0v-9.792a1.64 1.64 0 0 0-1.641-1.641" transform="translate(-67.039 -4.02)" style="fill:#2b2b2b"/>
            <path data-name="패스 210278" d="M205.36 12.738a3.245 3.245 0 0 0-1.283-2.777 5.032 5.032 0 0 0-1.875-.985 9.042 9.042 0 0 0-2.571-.282h-.581a9.1 9.1 0 0 0-2.59.282 5.031 5.031 0 0 0-1.875.985 3.245 3.245 0 0 0-1.283 2.777v7.695a1.653 1.653 0 0 0 3.181.631 1.256 1.256 0 0 0 .047-.129c0-.007 0-.013.006-.02a1.322 1.322 0 0 0 .057-.276c0-.025.006-.05.008-.074s.007-.045.007-.069v-7.361a1.27 1.27 0 0 1 .734-1.235 4.183 4.183 0 0 1 1.766-.3h.443a4.183 4.183 0 0 1 1.766.3 1.27 1.27 0 0 1 .734 1.235V20.5c0 .024.006.046.007.069s0 .05.008.074a1.324 1.324 0 0 0 .057.276c0 .007 0 .013.006.02a1.26 1.26 0 0 0 .047.129 1.653 1.653 0 0 0 3.181-.631V20.352z" transform="translate(-84.361 -3.794)" style="fill:#2b2b2b"/>
        </g>
    </g>
</svg>
