<svg data-name="logo kss" xmlns="http://www.w3.org/2000/svg" width="72.4" height="33" viewBox="0 0 72.4 33">
    <g data-name="그룹 149104">
        <path data-name="패스 210153" d="M30.6 22.4a5.3 5.3 0 1 1-5.3 5.3 5.3 5.3 0 0 1 5.3-5.3" style="fill:#ff001f"/>
        <path data-name="패스 210154" d="M67.1.8a5.3 5.3 0 1 1-5.3 5.3A5.3 5.3 0 0 1 67.1.8" style="fill:#00bedd"/>
        <path data-name="패스 210155" d="M5.3 0A5.3 5.3 0 1 1 0 5.3 5.3 5.3 0 0 1 5.3 0" style="fill:#ff8f1f"/>
        <path data-name="패스 210156" d="M24.7 4h-6.3L8.2 17.8V13a7.173 7.173 0 0 1-2.9.6 7.512 7.512 0 0 1-2.6-.5v18.4h5.5V26l4.2-5.6 6 11.1h6.3L16 15.6z" style="fill:#333"/>
        <path data-name="패스 210157" d="M47.8 20a6.765 6.765 0 0 0-1.8-2.6 10 10 0 0 0-2.6-1.8 8.662 8.662 0 0 0-3.2-.6h-5.5a4.253 4.253 0 0 1-1.1-.2 2.361 2.361 0 0 1-.9-.6 3.49 3.49 0 0 1-.6-.9 3.6 3.6 0 0 1-.2-1.1 4.253 4.253 0 0 1 .2-1.1 2.361 2.361 0 0 1 .6-.9 3.49 3.49 0 0 1 .9-.6 3.6 3.6 0 0 1 1.1-.2h12.6V3.9H34.7a7.111 7.111 0 0 0-3.2.7 6.765 6.765 0 0 0-2.6 1.8A10 10 0 0 0 27.1 9a8.756 8.756 0 0 0-.7 3.2 7.111 7.111 0 0 0 .7 3.2 6.765 6.765 0 0 0 1.8 2.6 10 10 0 0 0 2.6 1.8 8.756 8.756 0 0 0 3.2.7h5.5a4.253 4.253 0 0 1 1.1.2 2.361 2.361 0 0 1 .9.6 3.49 3.49 0 0 1 .6.9 3.6 3.6 0 0 1 .2 1.1 4.253 4.253 0 0 1-.2 1.1 2.361 2.361 0 0 1-.6.9 2.034 2.034 0 0 1-.9.6 3.6 3.6 0 0 1-1.1.2h-2a5.537 5.537 0 0 1 .2 1.8 7.873 7.873 0 0 1-1 3.7h2.7a7.111 7.111 0 0 0 3.2-.7 6.765 6.765 0 0 0 2.6-1.8 10 10 0 0 0 1.8-2.6 8.662 8.662 0 0 0 .6-3.2 5.276 5.276 0 0 0-.5-3.3" style="fill:#333"/>
        <path data-name="패스 210158" d="M68.1 17.4a10 10 0 0 0-2.6-1.8 8.662 8.662 0 0 0-3.2-.6h-5.5a4.253 4.253 0 0 1-1.1-.2 2.361 2.361 0 0 1-.9-.6 2.034 2.034 0 0 1-.6-.9 3.6 3.6 0 0 1-.2-1.1 4.253 4.253 0 0 1 .2-1.1 2.361 2.361 0 0 1 .6-.9 3.49 3.49 0 0 1 .9-.6 3.6 3.6 0 0 1 1.1-.2h3.4a7.734 7.734 0 0 1-.8-3.4 7.106 7.106 0 0 1 .3-2.1h-2.9a7.111 7.111 0 0 0-3.2.7A6.765 6.765 0 0 0 51 6.4 10 10 0 0 0 49.2 9a8.756 8.756 0 0 0-.7 3.2 7.111 7.111 0 0 0 .7 3.2A6.765 6.765 0 0 0 51 18a10 10 0 0 0 2.6 1.8 8.756 8.756 0 0 0 3.2.7h5.5a4.253 4.253 0 0 1 1.1.2 2.361 2.361 0 0 1 .9.6 3.49 3.49 0 0 1 .6.9 3.6 3.6 0 0 1 .2 1.1 4.253 4.253 0 0 1-.2 1.1 2.361 2.361 0 0 1-.6.9 2.034 2.034 0 0 1-.9.6 3.6 3.6 0 0 1-1.1.2H50.1v5.5h12.2a7.111 7.111 0 0 0 3.2-.7 6.765 6.765 0 0 0 2.6-1.8 10 10 0 0 0 1.8-2.6 8.833 8.833 0 0 0 0-6.4 10.6 10.6 0 0 0-1.8-2.7" style="fill:#333"/>
    </g>
</svg>
